<svg width="64" height="64" viewBox="0 0 64 64" fill="none" xmlns="http://www.w3.org/2000/svg">
<path d="M9 4C6.23858 4 4 6.23858 4 9V31C4 33.7614 6.23858 36 9 36H12.6505L9.11246 42.6166C8.66172 43.4596 9.6539 44.3373 10.529 43.8697L25.257 36H41C43.7614 36 46 33.7614 46 31V9C46 6.23858 43.7614 4 41 4H9Z" fill="url(#paint0_linear_328_681)"/>
<path d="M12 16C12 14.8954 12.8954 14 14 14H36C37.1046 14 38 14.8954 38 16C38 17.1046 37.1046 18 36 18H14C12.8954 18 12 17.1046 12 16Z" fill="url(#paint1_linear_328_681)"/>
<path d="M14 22C12.8954 22 12 22.8954 12 24C12 25.1046 12.8954 26 14 26H20C21.1046 26 22 25.1046 22 24C22 22.8954 21.1046 22 20 22H14Z" fill="url(#paint2_linear_328_681)"/>
<path d="M26 22C24.8954 22 24 22.8954 24 24C24 25.1046 24.8954 26 26 26H30C31.1046 26 32 25.1046 32 24C32 22.8954 31.1046 22 30 22H26Z" fill="url(#paint3_linear_328_681)"/>
<path d="M54 20C57.3137 20 60 22.6863 60 26V46C60 49.3137 57.3137 52 54 52H51.3495L54.8875 58.6166C55.3383 59.4596 54.3461 60.3373 53.471 59.8697L38.743 52H24C20.6863 52 18 49.3137 18 46V26C18 22.6863 20.6863 20 24 20H54Z" fill="url(#paint4_linear_328_681)"/>
<path d="M26 32C26 30.8954 26.8954 30 28 30H50C51.1046 30 52 30.8954 52 32C52 33.1046 51.1046 34 50 34H28C26.8954 34 26 33.1046 26 32Z" fill="url(#paint5_linear_328_681)"/>
<path d="M28 38C26.8954 38 26 38.8954 26 40C26 41.1046 26.8954 42 28 42H34C35.1046 42 36 41.1046 36 40C36 38.8954 35.1046 38 34 38H28Z" fill="url(#paint6_linear_328_681)"/>
<path d="M40 38C38.8954 38 38 38.8954 38 40C38 41.1046 38.8954 42 40 42H44C45.1046 42 46 41.1046 46 40C46 38.8954 45.1046 38 44 38H40Z" fill="url(#paint7_linear_328_681)"/>
<defs>
<linearGradient id="paint0_linear_328_681" x1="46" y1="44" x2="6.04756" y2="2.04994" gradientUnits="userSpaceOnUse">
<stop offset="0.255437" stop-color="#2E2E41"/>
<stop offset="0.880102" stop-color="#566C80"/>
</linearGradient>
<linearGradient id="paint1_linear_328_681" x1="18.5" y1="19" x2="18.5" y2="13" gradientUnits="userSpaceOnUse">
<stop offset="0.155999" stop-color="#71706E"/>
<stop offset="0.796276" stop-color="#B9AA99"/>
</linearGradient>
<linearGradient id="paint2_linear_328_681" x1="17" y1="27" x2="17" y2="21" gradientUnits="userSpaceOnUse">
<stop offset="0.155999" stop-color="#71706E"/>
<stop offset="0.796276" stop-color="#B9AA99"/>
</linearGradient>
<linearGradient id="paint3_linear_328_681" x1="17" y1="27" x2="17" y2="21" gradientUnits="userSpaceOnUse">
<stop offset="0.155999" stop-color="#71706E"/>
<stop offset="0.796276" stop-color="#B9AA99"/>
</linearGradient>
<linearGradient id="paint4_linear_328_681" x1="60" y1="60.4982" x2="19.5287" y2="18.526" gradientUnits="userSpaceOnUse">
<stop offset="0.352596" stop-color="#089953"/>
<stop offset="1" stop-color="#16D96F"/>
</linearGradient>
<linearGradient id="paint5_linear_328_681" x1="34.125" y1="30" x2="34.125" y2="34" gradientUnits="userSpaceOnUse">
<stop stop-color="white"/>
<stop offset="0.705" stop-color="#E6E6E6"/>
</linearGradient>
<linearGradient id="paint6_linear_328_681" x1="32.25" y1="38" x2="32.25" y2="42" gradientUnits="userSpaceOnUse">
<stop stop-color="white"/>
<stop offset="0.705" stop-color="#E6E6E6"/>
</linearGradient>
<linearGradient id="paint7_linear_328_681" x1="32.25" y1="38" x2="32.25" y2="42" gradientUnits="userSpaceOnUse">
<stop stop-color="white"/>
<stop offset="0.705" stop-color="#E6E6E6"/>
</linearGradient>
</defs>
</svg>
