<svg width="64" height="64" viewBox="0 0 64 64" fill="none" xmlns="http://www.w3.org/2000/svg">
<path d="M4 14C4 10.6863 6.68629 8 10 8H54C57.3137 8 60 10.6863 60 14V50C60 53.3137 57.3137 56 54 56H10C6.68629 56 4 53.3137 4 50V14Z" fill="url(#paint0_linear_576_1582)"/>
<path d="M42 44C43.1046 44 44 44.8954 44 46C44 47.1046 43.1046 48 42 48H34C32.8954 48 32 47.1046 32 46C32 44.8954 32.8954 44 34 44H42Z" fill="url(#paint1_linear_576_1582)"/>
<path d="M50 44C51.1046 44 52 44.8954 52 46C52 47.1046 51.1046 48 50 48H48C46.8954 48 46 47.1046 46 46C46 44.8954 46.8954 44 48 44H50Z" fill="url(#paint2_linear_576_1582)"/>
<path d="M20 56H16V39H4V35H16V8H20V35L60 35V39L20 39V56Z" fill="url(#paint3_linear_576_1582)"/>
<path fill-rule="evenodd" clip-rule="evenodd" d="M18 28.924C17.8449 27.6542 17.5922 26.5674 17.1962 25.9036C15.5395 23.127 11.8703 22.1756 9.00075 23.7787C6.13123 25.3818 5.14807 28.9323 6.80478 31.7089C7.75184 33.2962 11.2745 35.406 14.1187 36.9223C14.4014 37.073 14.6773 37.2179 14.9434 37.3558L8.39052 43.6966C7.60953 44.4523 7.60953 45.6775 8.39052 46.4332C9.1715 47.1889 10.4377 47.1889 11.2187 46.4332L18 40L24.3892 46.4332C25.1701 47.1889 26.4364 47.1889 27.2173 46.4332C27.9983 45.6775 27.9983 44.4523 27.2173 43.6966L20.8008 37.4877C21.1443 37.3112 21.5069 37.1219 21.8813 36.9223C24.7255 35.406 28.2482 33.2962 29.1952 31.7089C30.8519 28.9323 29.8688 25.3818 26.9993 23.7787C24.1297 22.1756 20.4605 23.127 18.8038 25.9036C18.4078 26.5674 18.1551 27.6542 18 28.924ZM13.7378 27.8706C13.7785 28.0039 13.9281 28.4949 14.0451 29.5232C14.1467 30.4163 14.1979 31.45 14.2141 32.5162C13.2679 31.9696 12.3683 31.4098 11.6198 30.8781C10.758 30.2659 10.3934 29.895 10.2944 29.7944C10.2668 29.7662 10.2599 29.7592 10.2686 29.7738C9.71635 28.8483 10.0441 27.6648 11.0006 27.1304C11.9571 26.5961 13.1802 26.9132 13.7324 27.8387C13.7237 27.8241 13.7265 27.8334 13.7378 27.8706ZM22.2676 27.8387C22.2763 27.8241 22.2735 27.8334 22.2622 27.8706C22.2215 28.0039 22.0719 28.4949 21.9549 29.5232C21.8533 30.4163 21.8021 31.45 21.7859 32.5162C22.7321 31.9696 23.6317 31.4098 24.3802 30.8781C25.242 30.2659 25.6066 29.895 25.7056 29.7944C25.7332 29.7662 25.7401 29.7592 25.7314 29.7738C26.2836 28.8483 25.9559 27.6648 24.9994 27.1304C24.0429 26.5961 22.8198 26.9132 22.2676 27.8387Z" fill="url(#paint4_linear_576_1582)"/>
<defs>
<linearGradient id="paint0_linear_576_1582" x1="4" y1="8" x2="51.4353" y2="63.3412" gradientUnits="userSpaceOnUse">
<stop offset="0.294188" stop-color="#EFF2F6"/>
<stop offset="0.752941" stop-color="#B7C6CD"/>
</linearGradient>
<linearGradient id="paint1_linear_576_1582" x1="42" y1="44" x2="42" y2="48" gradientUnits="userSpaceOnUse">
<stop stop-color="white"/>
<stop offset="0.705" stop-color="#E6E6E6"/>
</linearGradient>
<linearGradient id="paint2_linear_576_1582" x1="42" y1="44" x2="42" y2="48" gradientUnits="userSpaceOnUse">
<stop stop-color="white"/>
<stop offset="0.705" stop-color="#E6E6E6"/>
</linearGradient>
<linearGradient id="paint3_linear_576_1582" x1="4" y1="9" x2="65.6426" y2="45.4601" gradientUnits="userSpaceOnUse">
<stop offset="0.219724" stop-color="#16D96F"/>
<stop offset="0.692756" stop-color="#089953"/>
</linearGradient>
<linearGradient id="paint4_linear_576_1582" x1="30" y1="47" x2="6" y2="23" gradientUnits="userSpaceOnUse">
<stop stop-color="#089953"/>
<stop offset="1" stop-color="#16D96F"/>
</linearGradient>
</defs>
</svg>
