<svg width="1076" height="909" viewBox="0 0 1076 909" fill="none" xmlns="http://www.w3.org/2000/svg">
<path fill-rule="evenodd" clip-rule="evenodd" d="M669.342 908.999H520.677V777.972C520.677 743.956 492.959 716.239 458.943 716.239H341.144C307.128 716.239 279.41 743.956 279.41 777.972V908.999H120.036C113.107 908.999 107.438 903.33 107.438 896.401V151.185H681.941V896.401C681.941 903.33 676.271 908.999 669.342 908.999ZM586.82 335.756H517.527H448.234C441.304 335.756 435.635 330.087 435.635 323.158V222.997C435.635 216.068 441.304 210.399 448.234 210.399H586.82C593.749 210.399 599.419 216.068 599.419 222.997V323.158C599.419 330.717 593.749 335.756 586.82 335.756ZM460.833 310.559H504.928V285.991H460.833V310.559ZM504.928 260.794V235.596H460.833V260.794H504.928ZM530.126 310.559H574.221V285.991H530.126V310.559ZM574.221 260.794V235.596H530.126V260.794H574.221ZM574.221 445.995H530.126V471.193H574.221V445.995ZM518.157 496.39H517.527H516.897H448.234C441.304 496.39 435.635 490.721 435.635 483.792V383.002C435.635 376.072 441.304 370.403 448.234 370.403H586.82C593.749 370.403 599.419 376.072 599.419 383.002V483.792C599.419 490.721 593.749 496.39 586.82 496.39H518.157ZM504.928 471.193V445.995H460.833V471.193H504.928ZM460.833 420.798H504.928V395.6H460.833V420.798ZM530.126 395.6V420.798H574.221V395.6H530.126ZM328.546 445.995H284.45V471.193H328.546V445.995ZM272.481 496.39H271.851H203.188C196.259 496.39 190.589 490.721 190.589 483.792V383.002C190.589 376.072 196.259 370.403 203.188 370.403H341.144C348.074 370.403 353.743 376.072 353.743 383.002V483.792C353.743 490.721 348.074 496.39 341.144 496.39H272.481ZM259.252 471.193V445.995H215.787V471.193H259.252ZM215.787 420.798H259.252V395.6H215.787V420.798ZM284.45 395.6V420.798H328.546V395.6H284.45ZM574.221 606.629H530.126V631.827H574.221V606.629ZM517.527 657.024H516.897H448.234C441.304 657.024 435.635 651.355 435.635 644.426V543.636C435.635 536.706 441.304 531.037 448.234 531.037H586.82C593.749 531.037 599.419 536.706 599.419 543.636V644.426C599.419 651.355 593.749 657.024 586.82 657.024H517.527ZM504.928 631.827V606.629H460.833V631.827H504.928ZM460.833 581.432H504.928V556.234H460.833V581.432ZM530.126 556.234V581.432H574.221V556.234H530.126ZM328.546 606.629H284.45V631.827H328.546V606.629ZM272.481 657.024H271.851H203.188C196.259 657.024 190.589 651.355 190.589 644.426V543.636C190.589 536.706 196.259 531.037 203.188 531.037H341.144C348.074 531.037 353.743 536.706 353.743 543.636V644.426C353.743 651.355 348.074 657.024 341.144 657.024H272.481ZM259.252 631.827V606.629H215.787V631.827H259.252ZM215.787 581.432H259.252V556.234H215.787V581.432ZM284.45 556.234V581.432H328.546V556.234H284.45ZM341.144 335.756H271.851H203.188C196.259 335.756 190.589 330.087 190.589 323.158V222.997C190.589 216.068 196.259 210.399 203.188 210.399H341.144C348.074 210.399 353.743 216.068 353.743 222.997V323.158C353.743 330.717 348.074 335.756 341.144 335.756ZM215.787 310.559H259.252V285.991H215.787V310.559ZM284.45 310.559H328.546V285.991H284.45V310.559ZM328.546 260.794V235.596H284.45V260.794H328.546ZM259.252 235.596H215.787V260.794H259.252V235.596ZM495.479 908.999H304.608V777.972C304.608 757.814 320.986 741.436 341.144 741.436H458.943C479.101 741.436 495.479 757.814 495.479 777.972V908.999Z" fill="white"/>
<path fill-rule="evenodd" clip-rule="evenodd" d="M709.658 125.988H79.7208C72.7915 125.988 67.1221 120.318 67.1221 113.389V12.5988C67.1221 5.66944 72.7915 0 79.7208 0H709.658C716.588 0 722.257 5.66944 722.257 12.5988V113.389C722.257 120.318 716.588 125.988 709.658 125.988Z" fill="white"/>
<path fill-rule="evenodd" clip-rule="evenodd" d="M995.649 909H705.248C706.508 905.22 707.138 900.81 707.138 896.401V151.185H709.658C712.807 151.185 715.327 150.555 718.477 149.925L1000.06 249.455C1005.1 250.715 1008.25 255.754 1008.25 260.794V896.401C1008.25 903.33 1002.58 909 995.649 909ZM824.936 415.758H755.013C748.084 415.758 742.414 410.089 742.414 403.16V333.867C742.414 326.937 748.084 321.268 755.013 321.268H824.936C831.866 321.268 837.535 326.937 837.535 333.867V403.16C837.535 410.089 831.866 415.758 824.936 415.758ZM767.612 390.561H812.337V346.465H767.612V390.561ZM958.483 415.758H888.56C881.631 415.758 875.961 410.089 875.961 403.16V333.867C875.961 326.937 881.631 321.268 888.56 321.268H958.483C965.412 321.268 971.082 326.937 971.082 333.867V403.16C971.082 410.089 965.412 415.758 958.483 415.758ZM901.159 390.561H945.884V346.465H901.159V390.561ZM824.936 557.494H755.013C748.084 557.494 742.414 551.825 742.414 544.896V475.603C742.414 468.673 748.084 463.004 755.013 463.004H824.936C831.866 463.004 837.535 468.673 837.535 475.603V544.896C837.535 551.825 831.866 557.494 824.936 557.494ZM767.612 532.297H812.337V488.201H767.612V532.297ZM958.483 557.494H888.56C881.631 557.494 875.961 551.825 875.961 544.896V475.603C875.961 468.673 881.631 463.004 888.56 463.004H958.483C965.412 463.004 971.082 468.673 971.082 475.603V544.896C971.082 551.825 965.412 557.494 958.483 557.494ZM901.159 532.297H945.884V488.201H901.159V532.297ZM824.936 699.23H755.013C748.084 699.23 742.414 693.561 742.414 686.632V617.338C742.414 610.409 748.084 604.74 755.013 604.74H824.936C831.866 604.74 837.535 610.409 837.535 617.338V686.632C837.535 693.561 831.866 699.23 824.936 699.23ZM767.612 674.033H812.337V629.937H767.612V674.033ZM958.483 699.23H888.56C881.631 699.23 875.961 693.561 875.961 686.632V617.338C875.961 610.409 881.631 604.74 888.56 604.74H958.483C965.412 604.74 971.082 610.409 971.082 617.338V686.632C971.082 693.561 965.412 699.23 958.483 699.23ZM901.159 674.033H945.884V629.937H901.159V674.033ZM824.936 840.966H755.013C748.084 840.966 742.414 835.297 742.414 828.368V759.074C742.414 752.145 748.084 746.476 755.013 746.476H824.936C831.866 746.476 837.535 752.145 837.535 759.074V828.368C837.535 835.297 831.866 840.966 824.936 840.966ZM767.612 815.769H812.337V771.673H767.612V815.769ZM958.483 840.966H888.56C881.631 840.966 875.961 835.297 875.961 828.368V759.074C875.961 752.145 881.631 746.476 888.56 746.476H958.483C965.412 746.476 971.082 752.145 971.082 759.074V828.368C971.082 835.297 965.412 840.966 958.483 840.966ZM901.159 815.769H945.884V771.673H901.159V815.769Z" fill="white"/>
<path fill-rule="evenodd" clip-rule="evenodd" d="M1063.05 909H12.9469C-3.43151 909 -3.43151 883.803 12.9469 883.803H1063.05C1079.43 883.803 1079.43 909 1063.05 909Z" fill="white"/>
</svg>
