<svg width="90" height="43" viewBox="0 0 90 43" fill="none" xmlns="http://www.w3.org/2000/svg">
<path d="M18.7661 30.2242V15.2265L25.0555 8.93719L31.3448 15.2265L32.3124 16.1941" stroke="#E6E8EE" stroke-width="6.875"/>
<path d="M6.18799 30.2243L6.18799 15.2266L12.4773 8.93723L18.7667 15.2266V30.2243" stroke="#E6E8EE" stroke-width="6.875"/>
<path d="M44.9144 24.75V14.8019C45.2215 14.7331 45.5492 14.6735 45.8975 14.6231C46.2458 14.5681 46.6056 14.5269 46.9769 14.4994C47.3481 14.4673 47.7217 14.4512 48.0975 14.4512C49.5596 14.4512 50.6596 14.7171 51.3975 15.2487C52.1354 15.7758 52.5044 16.6008 52.5044 17.7237C52.5044 18.4479 52.3302 19.0552 51.9819 19.5456C51.6335 20.0315 51.1363 20.3981 50.49 20.6456C49.8483 20.8931 49.0806 21.0169 48.1869 21.0169C47.9852 21.0169 47.7996 21.0146 47.63 21.01C47.4604 21.0008 47.2863 20.9917 47.1075 20.9825V24.75H44.9144ZM50.9025 24.75L47.63 20.0475H50.0225L53.3431 24.75H50.9025ZM48.2281 19.3531C48.966 19.3531 49.5138 19.2248 49.8713 18.9681C50.2288 18.7115 50.4075 18.2967 50.4075 17.7237C50.4075 17.3479 50.3319 17.0408 50.1806 16.8025C50.0294 16.5596 49.8002 16.3808 49.4931 16.2662C49.186 16.1517 48.7965 16.0944 48.3244 16.0944C48.0906 16.0944 47.8752 16.1035 47.6781 16.1219C47.481 16.1402 47.2908 16.1677 47.1075 16.2044V19.2981C47.2404 19.3073 47.3642 19.3187 47.4788 19.3325C47.5979 19.3417 47.7171 19.3485 47.8363 19.3531C47.96 19.3531 48.0906 19.3531 48.2281 19.3531ZM57.6431 24.8944C56.699 24.8944 55.9221 24.7592 55.3125 24.4887C54.7029 24.2183 54.2492 23.7944 53.9512 23.2169C53.6579 22.6394 53.5112 21.8946 53.5112 20.9825C53.5112 20.1529 53.6464 19.4494 53.9169 18.8719C54.1919 18.2944 54.5883 17.8567 55.1062 17.5587C55.6287 17.2608 56.2612 17.1119 57.0037 17.1119C57.7142 17.1119 58.3123 17.2631 58.7981 17.5656C59.284 17.8635 59.6506 18.3058 59.8981 18.8925C60.1456 19.4792 60.2694 20.1987 60.2694 21.0512V21.6219H54.7625V20.3637H58.5781L58.2275 20.4944C58.2275 19.9994 58.1817 19.6052 58.09 19.3119C57.9983 19.0185 57.8585 18.81 57.6706 18.6862C57.4873 18.5625 57.2581 18.5006 56.9831 18.5006C56.7035 18.5006 56.4675 18.5625 56.275 18.6862C56.0871 18.81 55.9427 19.0185 55.8419 19.3119C55.7456 19.6006 55.6975 19.9925 55.6975 20.4875V21.3675C55.6975 21.8304 55.764 22.1994 55.8969 22.4744C56.0344 22.7448 56.2658 22.9396 56.5912 23.0587C56.9212 23.1779 57.375 23.2375 57.9525 23.2375C58.2458 23.2375 58.5529 23.2169 58.8737 23.1756C59.1992 23.1298 59.5246 23.0702 59.85 22.9969V24.64C59.4512 24.7317 59.0708 24.7958 58.7087 24.8325C58.3512 24.8738 57.996 24.8944 57.6431 24.8944ZM63.5107 24.8875C62.7407 24.8875 62.1403 24.6881 61.7095 24.2894C61.2832 23.886 61.0701 23.3612 61.0701 22.715C61.0701 22.0046 61.3153 21.45 61.8057 21.0512C62.3007 20.6525 63.0982 20.4165 64.1982 20.3431L65.7795 20.2125L66.0132 21.4225L64.4182 21.5531C63.9965 21.5852 63.6918 21.6815 63.5038 21.8419C63.3205 22.0023 63.2288 22.2223 63.2288 22.5019C63.2288 22.7769 63.3136 22.99 63.4832 23.1412C63.6528 23.2879 63.9003 23.3612 64.2257 23.3612C64.4274 23.3612 64.6336 23.3269 64.8445 23.2581C65.0553 23.1848 65.2478 23.061 65.422 22.8869V20.1369C65.422 19.7931 65.3647 19.5227 65.2501 19.3256C65.1401 19.1285 64.959 18.9887 64.707 18.9062C64.4595 18.8192 64.1272 18.7756 63.7101 18.7756C63.4213 18.7756 63.0936 18.8008 62.727 18.8512C62.3603 18.8971 62.0097 18.9727 61.6751 19.0781V17.4281C62.0418 17.3227 62.4428 17.2448 62.8782 17.1944C63.3182 17.1394 63.7261 17.1119 64.102 17.1119C64.8995 17.1119 65.5526 17.2104 66.0613 17.4075C66.5747 17.6046 66.9528 17.9346 67.1957 18.3975C67.4386 18.8558 67.5601 19.4815 67.5601 20.2744V24.75H65.7588L65.6076 24.0006H65.5045C65.2799 24.3077 64.9934 24.5323 64.6451 24.6744C64.2968 24.8165 63.9186 24.8875 63.5107 24.8875ZM69.1358 24.75V13.64H71.322V24.75H69.1358ZM76.3108 24.8875C75.4033 24.8875 74.7043 24.6629 74.2139 24.2137C73.7281 23.76 73.4852 23.0427 73.4852 22.0619V17.2287L73.8839 14.575H75.6714V21.7181C75.6714 22.236 75.7677 22.5935 75.9602 22.7906C76.1572 22.9877 76.4735 23.0862 76.9089 23.0862C77.0281 23.0862 77.1495 23.0794 77.2733 23.0656C77.4016 23.0473 77.5437 23.0244 77.6995 22.9969V24.7294C77.5025 24.7706 77.2802 24.8073 77.0327 24.8394C76.7897 24.8715 76.5491 24.8875 76.3108 24.8875ZM72.2614 18.9544V17.2287H77.6514V18.9544H72.2614ZM79.6207 27.775L80.7 24.75L81.4563 23.0175L83.3263 17.2287H85.485L81.7725 27.775H79.6207ZM80.095 24.75L77.455 17.2287H79.7444L82.13 24.75H80.095Z" fill="#E6E8EE"/>
</svg>
