<svg width="24" height="25" viewBox="0 0 24 25" fill="none" xmlns="http://www.w3.org/2000/svg">
<g clip-path="url(#clip0_4_87)">
<path d="M19.6616 12.338C19.6616 15.8232 19.655 18.8522 19.6815 22.3374C19.6815 22.5821 13.7162 23.2567 10.5616 23.6469C9.84734 23.7395 9.47699 23.5874 9.47699 23.389C9.49022 16.3721 9.55635 8.56834 9.54312 1.55815C9.53651 1.35974 9.84073 1.35974 10.555 1.36636C13.2731 1.37958 19.6815 1.63089 19.6748 1.85575C19.655 5.34762 19.6616 8.8461 19.6616 12.338Z" fill="#00cfe8"/>
<path d="M9.41746 12.5033C9.41746 16.1737 9.42408 19.8376 9.41085 23.508C9.41085 23.7395 9.47037 23.7725 9.682 23.7461C11.8512 23.4419 14.0138 23.1509 16.183 22.8599C17.2874 22.7078 18.3918 22.5557 19.4963 22.4168C19.655 22.3903 19.6881 22.3242 19.6881 22.1787C19.6814 20.4526 19.6814 18.7199 19.6814 16.9938V16.7954C19.6947 16.5772 19.8402 16.425 20.032 16.425C20.2237 16.425 20.3626 16.5772 20.3759 16.8086V17.007C20.3759 18.775 20.3736 20.543 20.3692 22.311C20.3692 22.516 20.4221 22.5623 20.6272 22.5623C21.6126 22.549 22.5913 22.5557 23.5767 22.5557C23.9008 22.5623 24.0794 22.8004 23.9471 23.0517C23.8148 23.303 23.709 23.2435 23.5437 23.2435H21.9366C20.8388 23.2435 19.7344 23.217 18.6365 23.2567C17.5387 23.2964 16.6261 23.5014 15.6208 23.627C14.1923 23.8056 12.7705 24.0106 11.3486 24.2024L9.31165 24.4802C8.85532 24.5529 8.72967 24.4471 8.72967 23.9775C8.72967 23.7858 8.72306 23.594 8.72967 23.4088C8.73628 23.2236 8.68999 23.2435 8.56434 23.2435H0.410022C0.158713 23.2435 0.00660706 23.1046 0.00660706 22.8996C0.00660706 22.6945 0.165328 22.5557 0.429864 22.5557C1.40203 22.5557 2.38081 22.549 3.35298 22.5623C3.59106 22.5689 3.6572 22.516 3.6572 22.2713C3.65279 15.5873 3.65058 8.90341 3.65058 2.21948V1.99462C3.6572 1.71025 3.77624 1.59782 4.06723 1.59121H8.55111C8.68338 1.59121 8.7429 1.56475 8.72967 1.41926C8.71644 1.27376 8.72967 1.10181 8.72967 0.943092C8.72967 0.592582 8.85533 0.466931 9.21906 0.499998L11.3618 0.711623L16.0639 1.18779L20.0121 1.59121C20.2634 1.61766 20.3759 1.7367 20.3759 2.00123V7.47713C20.3759 7.72844 20.237 7.88054 20.032 7.88054C19.8269 7.88054 19.6814 7.72844 19.6814 7.4639C19.6814 5.81055 19.6837 4.15941 19.6881 2.51047C19.6881 2.29222 19.6418 2.23932 19.4235 2.21948C17.0559 1.98801 14.695 1.74331 12.3274 1.49862C11.4345 1.41264 10.5351 1.33328 9.64232 1.23408C9.44392 1.20763 9.41746 1.26053 9.41746 1.4391V12.5033ZM8.72967 13.416V4.52094C8.72967 4.33576 8.6966 4.26963 8.49159 4.26963C7.82364 4.28947 7.15568 4.28286 6.48773 4.27624C6.30917 4.26963 6.26949 4.32254 6.26949 4.49448V22.3374C6.26949 22.5094 6.30917 22.5623 6.48773 22.5623C7.14907 22.549 7.81041 22.5424 8.47175 22.5623C8.6966 22.5689 8.73629 22.4961 8.73629 22.2911C8.73188 19.3371 8.72967 16.3788 8.72967 13.416ZM4.33177 12.4173V22.2316C4.33508 22.2889 4.33508 22.3463 4.33177 22.4035C4.31854 22.5226 4.37144 22.5623 4.48387 22.5623C4.74815 22.5457 5.0132 22.5457 5.27748 22.5623C5.54863 22.5887 5.59492 22.4829 5.59492 22.2382C5.59051 16.198 5.58831 10.16 5.58831 4.12414C5.58831 3.67443 5.66767 3.59506 6.12399 3.59506C6.93083 3.59506 7.73105 3.58845 8.53127 3.59506C8.6966 3.60168 8.7429 3.55538 8.72967 3.39005C8.72306 3.09906 8.71644 2.79484 8.73629 2.50385C8.75613 2.21287 8.67676 2.279 8.4982 2.279C7.20198 2.28782 5.90575 2.28782 4.60953 2.279C4.39128 2.27238 4.32515 2.32529 4.32515 2.55676C4.33397 5.84582 4.33617 9.13268 4.33177 12.4173Z" fill="#00cfe8"/>
<path d="M12.6911 12.5099C12.6898 12.7545 12.616 12.9932 12.479 13.1959C12.342 13.3985 12.148 13.556 11.9216 13.6484C11.6951 13.7408 11.4463 13.7639 11.2067 13.7149C10.967 13.6659 10.7473 13.547 10.5753 13.3731C10.4032 13.1992 10.2866 12.9782 10.2402 12.7381C10.1938 12.4979 10.2196 12.2494 10.3144 12.0239C10.4092 11.7985 10.5687 11.6062 10.7728 11.4714C10.9769 11.3366 11.2164 11.2653 11.461 11.2666C11.6234 11.2675 11.7841 11.3003 11.9338 11.3633C12.0835 11.4262 12.2193 11.5181 12.3336 11.6335C12.4478 11.749 12.5382 11.8858 12.5995 12.0362C12.6608 12.1865 12.692 12.3475 12.6911 12.5099ZM12.0033 12.5165C12.0051 12.371 11.9489 12.2307 11.8472 12.1265C11.7455 12.0223 11.6066 11.9628 11.461 11.961C11.3154 11.9593 11.1751 12.0154 11.0709 12.1171C10.9668 12.2188 10.9072 12.3577 10.9055 12.5033C10.9037 12.6489 10.9599 12.7892 11.0616 12.8934C11.1633 12.9976 11.3022 13.0571 11.4478 13.0588C11.5934 13.0606 11.7337 13.0045 11.8379 12.9028C11.942 12.8011 12.0016 12.6621 12.0033 12.5165Z" fill="#00cfe8"/>
<path d="M20.3759 13.8591V14.3286C20.3626 14.5601 20.2304 14.7056 20.032 14.7056C19.8336 14.7056 19.6881 14.5667 19.6881 14.3418C19.6815 14.0178 19.6815 13.6937 19.6881 13.3763C19.6947 13.0588 19.8468 12.9927 20.0386 13.0059C20.2304 13.0192 20.3626 13.1514 20.3692 13.3631C20.3759 13.5747 20.3759 13.6937 20.3759 13.8591Z" fill="#00cfe8"/>
<path d="M20.3759 10.4664C20.3759 10.6251 20.3825 10.7772 20.3693 10.9359C20.356 11.0947 20.2502 11.2732 20.0386 11.2864C19.827 11.2997 19.6881 11.1476 19.6881 10.9227C19.6881 10.6979 19.6815 10.2812 19.6881 9.96377C19.6881 9.75214 19.8005 9.62649 20.0187 9.61326C20.237 9.60003 20.3626 9.74552 20.3693 9.97038C20.3759 10.1952 20.3759 10.301 20.3759 10.4664Z" fill="#00cfe8"/>
</g>
<defs>
<clipPath id="clip0_4_87">
<rect width="24" height="24" fill="white" transform="translate(0 0.5)"/>
</clipPath>
</defs>
</svg>
