<svg width="64" height="64" viewBox="0 0 64 64" fill="none" xmlns="http://www.w3.org/2000/svg">
<path d="M8 10C8 6.68629 10.6863 4 14 4H48C52.4183 4 56 7.58172 56 12V54C56 57.3137 53.3137 60 50 60H14C10.6863 60 8 57.3137 8 54V10Z" fill="url(#paint0_linear_3_720)"/>
<path d="M42 4H50C53.3137 4 56 6.68629 56 10V18H50C45.5817 18 42 14.4183 42 10V4Z" fill="url(#paint1_linear_3_720)"/>
<path d="M42 12V4L56 18H48C44.6863 18 42 15.3137 42 12Z" fill="url(#paint2_linear_3_720)"/>
<path d="M24 22C24 20.8954 23.1046 20 22 20H18C16.8954 20 16 20.8954 16 22C16 23.1046 16.8954 24 18 24H22C23.1046 24 24 23.1046 24 22Z" fill="url(#paint3_linear_3_720)"/>
<path d="M24 30C24 28.8954 23.1046 28 22 28H18C16.8954 28 16 28.8954 16 30C16 31.1046 16.8954 32 18 32H22C23.1046 32 24 31.1046 24 30Z" fill="url(#paint4_linear_3_720)"/>
<path d="M36 30C36 28.8954 35.1046 28 34 28H30C28.8954 28 28 28.8954 28 30C28 31.1046 28.8954 32 30 32H34C35.1046 32 36 31.1046 36 30Z" fill="url(#paint5_linear_3_720)"/>
<path d="M46 28C47.1046 28 48 28.8954 48 30C48 31.1046 47.1046 32 46 32H42C40.8954 32 40 31.1046 40 30C40 28.8954 40.8954 28 42 28H46Z" fill="url(#paint6_linear_3_720)"/>
<path d="M24 38C24 36.8954 23.1046 36 22 36H18C16.8954 36 16 36.8954 16 38C16 39.1046 16.8954 40 18 40H22C23.1046 40 24 39.1046 24 38Z" fill="url(#paint7_linear_3_720)"/>
<path d="M36 38C36 36.8954 35.1046 36 34 36H30C28.8954 36 28 36.8954 28 38C28 39.1046 28.8954 40 30 40H34C35.1046 40 36 39.1046 36 38Z" fill="url(#paint8_linear_3_720)"/>
<path d="M46 36C47.1046 36 48 36.8954 48 38C48 39.1046 47.1046 40 46 40H42C40.8954 40 40 39.1046 40 38C40 36.8954 40.8954 36 42 36H46Z" fill="url(#paint9_linear_3_720)"/>
<path d="M24 46C24 44.8954 23.1046 44 22 44H18C16.8954 44 16 44.8954 16 46C16 47.1046 16.8954 48 18 48H22C23.1046 48 24 47.1046 24 46Z" fill="url(#paint10_linear_3_720)"/>
<path d="M36 46C36 44.8954 35.1046 44 34 44H30C28.8954 44 28 44.8954 28 46C28 47.1046 28.8954 48 30 48H34C35.1046 48 36 47.1046 36 46Z" fill="url(#paint11_linear_3_720)"/>
<path d="M46 44C47.1046 44 48 44.8954 48 46C48 47.1046 47.1046 48 46 48H42C40.8954 48 40 47.1046 40 46C40 44.8954 40.8954 44 42 44H46Z" fill="url(#paint12_linear_3_720)"/>
<defs>
<linearGradient id="paint0_linear_3_720" x1="56" y1="60" x2="0.658827" y2="12.5647" gradientUnits="userSpaceOnUse">
<stop stop-color="#089953"/>
<stop offset="0.147794" stop-color="#089953"/>
<stop offset="1" stop-color="#16D96F"/>
</linearGradient>
<linearGradient id="paint1_linear_3_720" x1="42" y1="4" x2="56" y2="18" gradientUnits="userSpaceOnUse">
<stop stop-color="#EFF2F6"/>
<stop offset="1" stop-color="#B7C6CD"/>
</linearGradient>
<linearGradient id="paint2_linear_3_720" x1="49" y1="10.4167" x2="43.1667" y2="15.6667" gradientUnits="userSpaceOnUse">
<stop offset="0.125293" stop-color="#089953"/>
<stop offset="1" stop-color="#16D96F"/>
</linearGradient>
<linearGradient id="paint3_linear_3_720" x1="18.5" y1="20" x2="18.5" y2="24" gradientUnits="userSpaceOnUse">
<stop stop-color="white"/>
<stop offset="0.705" stop-color="#E6E6E6"/>
</linearGradient>
<linearGradient id="paint4_linear_3_720" x1="26" y1="28" x2="26" y2="32" gradientUnits="userSpaceOnUse">
<stop stop-color="white"/>
<stop offset="0.705" stop-color="#E6E6E6"/>
</linearGradient>
<linearGradient id="paint5_linear_3_720" x1="26" y1="28" x2="26" y2="32" gradientUnits="userSpaceOnUse">
<stop stop-color="white"/>
<stop offset="0.705" stop-color="#E6E6E6"/>
</linearGradient>
<linearGradient id="paint6_linear_3_720" x1="26" y1="28" x2="26" y2="32" gradientUnits="userSpaceOnUse">
<stop stop-color="white"/>
<stop offset="0.705" stop-color="#E6E6E6"/>
</linearGradient>
<linearGradient id="paint7_linear_3_720" x1="26" y1="36" x2="26" y2="40" gradientUnits="userSpaceOnUse">
<stop stop-color="white"/>
<stop offset="0.705" stop-color="#E6E6E6"/>
</linearGradient>
<linearGradient id="paint8_linear_3_720" x1="26" y1="36" x2="26" y2="40" gradientUnits="userSpaceOnUse">
<stop stop-color="white"/>
<stop offset="0.705" stop-color="#E6E6E6"/>
</linearGradient>
<linearGradient id="paint9_linear_3_720" x1="26" y1="36" x2="26" y2="40" gradientUnits="userSpaceOnUse">
<stop stop-color="white"/>
<stop offset="0.705" stop-color="#E6E6E6"/>
</linearGradient>
<linearGradient id="paint10_linear_3_720" x1="26" y1="44" x2="26" y2="48" gradientUnits="userSpaceOnUse">
<stop stop-color="white"/>
<stop offset="0.705" stop-color="#E6E6E6"/>
</linearGradient>
<linearGradient id="paint11_linear_3_720" x1="26" y1="44" x2="26" y2="48" gradientUnits="userSpaceOnUse">
<stop stop-color="white"/>
<stop offset="0.705" stop-color="#E6E6E6"/>
</linearGradient>
<linearGradient id="paint12_linear_3_720" x1="26" y1="44" x2="26" y2="48" gradientUnits="userSpaceOnUse">
<stop stop-color="white"/>
<stop offset="0.705" stop-color="#E6E6E6"/>
</linearGradient>
</defs>
</svg>
