<svg width="25" height="25" viewBox="0 0 25 25" fill="currentColor" xmlns="http://www.w3.org/2000/svg">
<g clip-path="url(#clip0_4_114)">
<path d="M24.4615 15.4661C24.3214 15.7337 24.0983 15.9057 23.8626 16.0778C23.1234 16.6066 22.3971 17.1419 21.6643 17.6771C21.2119 18.0021 20.8678 17.9638 20.4982 17.5433C20.4282 17.4668 20.3899 17.4668 20.3071 17.5242L17.8221 19.3402C17.7392 19.3975 17.7265 19.4612 17.7392 19.5632C17.7624 19.7224 17.7529 19.8847 17.7113 20.0401C17.6698 20.1955 17.597 20.3408 17.4974 20.4672C17.3979 20.5936 17.2736 20.6984 17.1322 20.7752C16.9909 20.852 16.8353 20.8993 16.6751 20.914C16.5541 20.9268 16.4967 20.9459 16.4776 21.0861C16.4075 21.6532 16.0125 22.0355 15.4263 22.1247C15.2924 22.1438 15.2415 22.1756 15.216 22.3286C15.1013 22.9721 14.6043 23.3736 13.9544 23.3417C13.7823 23.3353 13.7377 23.3799 13.6867 23.5456C13.451 24.3548 12.5079 24.6607 11.8007 24.1637C11.6159 24.0362 11.5012 23.9916 11.2782 24.1382C10.692 24.5141 9.92097 24.2019 9.69159 23.5328C9.64698 23.4118 9.60238 23.3544 9.45583 23.3417C8.97157 23.3098 8.6466 23.0422 8.48731 22.5898C8.44908 22.4751 8.40447 22.4305 8.28341 22.4241C7.76091 22.3732 7.41046 22.0928 7.27028 21.5894C7.23205 21.4684 7.18108 21.4493 7.07913 21.4365C6.89193 21.417 6.71307 21.349 6.56015 21.2392C6.40724 21.1295 6.28556 20.9818 6.20709 20.8107C6.12863 20.6397 6.0961 20.4511 6.1127 20.2636C6.1293 20.0761 6.19446 19.8962 6.30176 19.7416L6.33362 19.7034C6.60761 19.3211 6.60761 19.3211 6.23167 19.0471C5.54988 18.5501 4.8681 18.0531 4.19268 17.5497C4.07799 17.4668 4.02701 17.4605 3.93143 17.5815C3.6447 17.9447 3.2369 17.9893 2.85459 17.7153L0.350452 15.893C0.184784 15.7783 0.114693 15.6126 0 15.4661V15.0328L0.669044 14.0898C0.911175 13.7584 0.949406 13.7457 1.33809 13.8413C1.50376 14.0643 1.46553 14.2745 1.29349 14.4848C1.12145 14.6951 0.994009 14.9181 0.828341 15.122C0.745507 15.2303 0.764623 15.2877 0.872944 15.3641C1.64181 15.9206 2.41281 16.4813 3.18593 17.0463C3.30062 17.1355 3.35797 17.1228 3.44717 17.0017C4.42419 15.6594 5.40546 14.3192 6.39097 12.9811C6.46743 12.8727 6.46743 12.8218 6.35274 12.7453L4.03975 11.0568C3.89957 10.9484 3.83586 10.993 3.74665 11.1141L2.42768 12.9301C2.24926 13.1722 2.13457 13.2041 1.85421 13.0958C1.66305 12.8345 1.65668 12.7389 1.84784 12.4841L3.2369 10.5725C3.54275 10.1583 3.95692 10.0946 4.37746 10.4005L6.1106 11.6557C6.2841 11.0592 6.51012 10.4792 6.78602 9.92257C7.69082 8.12571 8.86325 6.53912 10.4562 5.28387C10.5773 5.19466 10.5709 5.13731 10.4881 5.02899C10.0739 4.44278 9.65973 3.86294 9.26467 3.26399C9.13505 3.07702 9.0531 2.86119 9.02597 2.63531C8.99884 2.40942 9.02736 2.18033 9.10903 1.96799C9.1907 1.75564 9.32305 1.56649 9.49455 1.417C9.66605 1.26751 9.87151 1.16222 10.093 1.1103C10.3414 1.04731 10.6027 1.05838 10.8449 1.14216C10.9532 1.18039 11.0106 1.16128 11.0934 1.08481C11.7943 0.428514 12.6672 0.434888 13.3745 1.09119C13.4006 1.12349 13.4367 1.14609 13.4772 1.15533C13.5176 1.16458 13.56 1.15994 13.5975 1.14216C14.2347 0.963751 14.8273 1.16128 15.1841 1.66465C15.5409 2.16803 15.5282 2.79247 15.165 3.32134C14.8018 3.8502 14.3813 4.45552 13.9735 5.01625C13.8843 5.14368 13.8906 5.20103 14.0181 5.29661C14.4705 5.62157 14.8655 6.01663 15.2542 6.41168C15.4199 6.5901 15.4581 6.76213 15.3179 6.96603C15.1777 7.16993 14.942 7.12533 14.7381 6.91506C14.3408 6.49236 13.908 6.10439 13.4446 5.75538C13.33 5.67169 13.1915 5.62702 13.0496 5.62794C12.578 5.63432 12.1065 5.65343 11.6414 5.62157C11.3037 5.60246 11.0488 5.71078 10.8003 5.91468C9.78079 6.73665 8.96519 7.72428 8.25155 8.8075C7.62073 9.7569 7.11099 10.7637 6.79877 11.8724C6.75416 12.0444 6.76691 12.1527 6.93258 12.2674C7.74817 12.8473 8.56377 13.4271 9.36025 14.0388C9.70607 14.3044 10.1183 14.4697 10.5518 14.5167C10.6502 14.5374 10.7523 14.5325 10.8483 14.5024C10.9443 14.4722 11.0309 14.4179 11.0998 14.3446C11.6031 13.8668 12.2085 13.6501 12.9094 13.7393C13.4637 13.8094 13.948 14.0706 14.4641 14.2618C14.531 14.2913 14.6051 14.301 14.6773 14.2897C14.7496 14.2784 14.8171 14.2466 14.8719 14.1981C15.747 13.5482 16.6284 12.9067 17.5162 12.2738C17.6819 12.1527 17.7074 12.0444 17.65 11.8596C17.2868 10.5852 16.6688 9.43831 15.9041 8.36147C15.7512 8.14483 15.7066 7.95367 15.8787 7.73703C16.21 7.62871 16.2928 7.65419 16.4967 7.9473C17.2677 9.04326 17.9049 10.2093 18.2872 11.5028C18.3382 11.6621 18.3828 11.6366 18.4911 11.5601C19.0136 11.1715 19.5425 10.7891 20.0713 10.4068C20.6002 10.0245 20.9124 10.152 21.2246 10.5789L24.2768 14.7652C24.3468 14.8608 24.3978 14.9755 24.4615 15.0838V15.4661ZM8.29615 19.3211C8.30252 19.3593 8.31527 19.3911 8.35987 19.3975C8.41717 19.4987 8.46413 19.6055 8.50005 19.7161C8.52554 19.8308 8.58288 19.8499 8.67846 19.8563C9.18184 19.8945 9.51955 20.1621 9.67884 20.6337C9.71707 20.7483 9.76168 20.7738 9.87 20.7866C10.3097 20.8184 10.6665 21.016 10.813 21.4301C10.915 21.7232 11.0743 21.7615 11.3228 21.7232V21.7551L11.3546 21.7424L11.3228 21.7232C11.2724 21.6652 11.2296 21.6009 11.1953 21.5321C11.138 21.3792 11.1571 21.2262 11.2909 21.1179C11.4247 21.0096 11.6095 21.0032 11.7688 21.1243L13.4064 22.3031C13.5187 22.4256 13.6555 22.5233 13.8078 22.5898C13.9164 22.6459 14.0419 22.6601 14.1603 22.6295C14.2787 22.5989 14.3817 22.5257 14.4495 22.424C14.5173 22.3222 14.5453 22.199 14.528 22.078C14.5107 21.957 14.4494 21.8465 14.3558 21.7678C14.2602 21.685 14.1391 21.6149 14.0308 21.5385L13.8588 21.411L12.6672 20.5381C12.6025 20.4978 12.5529 20.4371 12.5264 20.3656C12.4999 20.2941 12.4979 20.2158 12.5207 20.143C12.5375 20.0722 12.576 20.0083 12.6309 19.9604C12.6857 19.9124 12.7541 19.8827 12.8265 19.8754C12.9603 19.8563 13.0687 19.9328 13.1706 20.0028L14.6935 21.1052C14.7928 21.2179 14.9143 21.309 15.0503 21.3728C15.1603 21.4263 15.2861 21.438 15.4041 21.4055C15.5221 21.373 15.6242 21.2987 15.6914 21.1964C15.7585 21.0941 15.7861 20.9709 15.769 20.8497C15.7519 20.7285 15.6912 20.6177 15.5983 20.5381C15.5009 20.4586 15.3963 20.3882 15.2861 20.3278L13.7696 19.2127C13.6804 19.1426 13.5912 19.0725 13.5657 18.9579C13.545 18.8888 13.5461 18.815 13.5689 18.7466C13.5917 18.6781 13.6351 18.6184 13.6931 18.5755C13.846 18.4672 14.0053 18.48 14.1583 18.5883L15.9933 19.9136C16.0507 20.0156 16.159 20.0602 16.2482 20.1239C16.3578 20.199 16.4924 20.2284 16.6233 20.2058C16.7542 20.1832 16.8711 20.1104 16.9491 20.0028C17.0228 19.8983 17.0539 19.7697 17.0361 19.6431C17.0184 19.5164 16.9531 19.4013 16.8535 19.3211C16.7605 19.225 16.6503 19.1472 16.5286 19.0917C15.337 18.2187 14.1391 17.3522 12.954 16.4728C12.8202 16.3773 12.7373 16.4027 12.6226 16.492C12.1575 16.8679 11.6923 17.2311 11.2208 17.6007C10.9277 17.83 10.5964 17.9447 10.2204 17.8746C9.70433 17.7854 9.35388 17.486 9.20732 16.9826C9.06077 16.4792 9.19458 16.0587 9.57052 15.7018C9.74893 15.5298 9.93372 15.3705 10.1758 15.1475C9.68521 15.1666 9.36662 14.95 9.06077 14.7015C8.9652 14.625 8.91422 14.6314 8.83776 14.7333C8.13686 15.7061 7.4317 16.6767 6.7223 17.6453C6.60124 17.7982 6.48655 17.9575 6.35911 18.1104C6.23167 18.2633 6.31451 18.2251 6.39097 18.2824L7.22568 18.9069C7.26908 18.9413 7.32322 18.9594 7.3786 18.9579C7.73543 18.9196 8.02216 19.0789 8.27703 19.3019L8.29615 19.3211ZM23.3465 14.7588L23.2573 14.625L20.6958 11.095C20.6066 10.9803 20.5428 10.9676 20.4282 11.0568C19.672 11.6175 18.9074 12.174 18.1343 12.7262C18.0069 12.8218 18.0069 12.8919 18.0961 13.0129C18.9584 14.1853 19.8165 15.3599 20.6703 16.5366C20.7531 16.6576 20.8232 16.6576 20.9379 16.5748L23.1999 14.9245C23.2629 14.8836 23.3135 14.8263 23.3465 14.7588ZM12.5844 14.4338C12.2373 14.4488 11.9062 14.5839 11.6477 14.8162L10.1312 16.167C9.84451 16.4219 9.79991 16.7405 10.0102 16.9826C10.2204 17.2247 10.5136 17.2311 10.813 16.9953L12.1129 15.9758C12.6418 15.5617 12.9157 15.5553 13.4701 15.9567L16.7707 18.3589C16.9619 18.4991 17.1658 18.7412 17.3569 18.7348C17.5481 18.7285 17.752 18.4736 17.9622 18.3462C18.1725 18.2187 18.1152 18.1486 18.0069 18.0021C17.2295 16.9444 16.4521 15.8866 15.6939 14.8162C15.5664 14.6377 15.4772 14.6123 15.3116 14.7588C14.9675 15.071 14.5852 15.1093 14.1646 14.9117C13.8779 14.7779 13.572 14.6823 13.2789 14.5677C13.0572 14.4823 12.822 14.437 12.5844 14.4338ZM12.234 4.9143H12.3295C12.6099 4.9143 12.9349 4.99713 13.1515 4.88244C13.3681 4.76775 13.502 4.44915 13.6676 4.2134C13.9798 3.77374 14.2921 3.32771 14.5915 2.88168C14.6804 2.76134 14.7272 2.61513 14.7247 2.46557C14.7223 2.31601 14.6707 2.17141 14.578 2.05405C14.4853 1.93668 14.3565 1.85307 14.2116 1.8161C14.0666 1.77912 13.9136 1.79084 13.7759 1.84944C13.2917 2.04059 13.2726 2.04059 12.903 1.63917C12.5334 1.23774 11.9727 1.21225 11.5777 1.62005L11.4311 1.77935C11.2336 1.99599 11.0615 2.02785 10.7939 1.90041C10.5263 1.77297 10.1249 1.77935 9.90186 2.03422C9.67884 2.2891 9.67884 2.6268 9.90823 2.95814C10.3288 3.55709 10.7493 4.14968 11.1635 4.755C11.2463 4.8697 11.3228 4.92704 11.4693 4.92067C11.7242 4.90155 11.9791 4.9143 12.234 4.9143ZM19.963 16.8297L19.8738 16.7022C19.6699 16.4219 19.466 16.1351 19.2557 15.8548L17.4716 13.408C17.4334 13.357 17.4143 13.2296 17.2868 13.3251C16.93 13.5928 16.5668 13.854 16.21 14.1089C16.1272 14.1662 16.1272 14.2045 16.1845 14.2809C17.0128 15.4109 17.8369 16.5408 18.6568 17.6707C18.7141 17.7472 18.7524 17.7727 18.8416 17.709C19.1856 17.4477 19.5361 17.1992 19.8802 16.9444C19.9184 16.9189 19.9694 16.9061 19.963 16.8297ZM8.34713 14.1662L8.26429 14.1216L7.16833 13.3188C7.06638 13.2487 7.04727 13.3251 7.00904 13.3761L4.5495 16.7468C4.47941 16.8424 4.49215 16.887 4.58136 16.9507C4.92544 17.1929 5.25678 17.435 5.58174 17.6835C5.69644 17.7727 5.74741 17.7472 5.82387 17.6389C6.62672 16.5302 7.44232 15.4215 8.25155 14.3128L8.34713 14.1662ZM11.9982 22.1693L11.9408 22.2139C12.0938 22.507 12.1575 22.8001 12.081 23.125C12.0555 23.2334 11.8962 23.3417 12.0428 23.4628C12.1357 23.5495 12.2437 23.6186 12.3614 23.6667C12.4679 23.7019 12.5831 23.7011 12.6891 23.6642C12.7951 23.6273 12.886 23.5565 12.9476 23.4628C13.075 23.278 13.0814 23.0167 12.9094 22.8702C12.6226 22.6217 12.304 22.3987 11.9982 22.1693ZM11.4056 22.8192C11.401 22.7484 11.3781 22.68 11.339 22.6207C11.2998 22.5615 11.2459 22.5135 11.1826 22.4815C11.1163 22.444 11.0396 22.4286 10.9639 22.4378C10.8883 22.447 10.8175 22.4802 10.7621 22.5325C10.6058 22.6664 10.4761 22.8285 10.3797 23.0104C10.3458 23.0739 10.3318 23.1463 10.3398 23.218C10.3477 23.2896 10.3772 23.3572 10.4243 23.4118C10.4658 23.4706 10.5233 23.5162 10.5899 23.5433C10.6565 23.5704 10.7296 23.5779 10.8003 23.5647C11.0169 23.5265 11.4056 23.0422 11.4056 22.8192ZM9.0098 20.965C8.99068 20.8057 8.92696 20.6783 8.77404 20.6082C8.70509 20.5759 8.62797 20.5653 8.55287 20.5778C8.47778 20.5903 8.40825 20.6254 8.3535 20.6783C8.20652 20.8137 8.0837 20.9731 7.9903 21.1498C7.95545 21.2127 7.94045 21.2848 7.94728 21.3564C7.9541 21.428 7.98242 21.4959 8.02853 21.5512C8.07102 21.6089 8.12862 21.6536 8.19496 21.6806C8.2613 21.7076 8.3338 21.7157 8.40447 21.7041C8.62111 21.6659 9.01617 21.1816 9.0098 20.965ZM10.2077 21.8889C10.2038 21.8179 10.1811 21.7492 10.1419 21.6899C10.1027 21.6306 10.0484 21.5827 9.98469 21.5512C9.91469 21.5117 9.83355 21.4965 9.75398 21.508C9.67442 21.5195 9.60093 21.5571 9.54503 21.6149C9.4144 21.7522 9.29706 21.9015 9.19458 22.0609C9.15332 22.1253 9.13468 22.2016 9.1416 22.2778C9.14852 22.3539 9.18061 22.4256 9.23281 22.4815C9.27752 22.5431 9.33962 22.59 9.41114 22.6161C9.48266 22.6422 9.56034 22.6464 9.63424 22.628C9.83177 22.5834 10.2141 22.0928 10.2077 21.8889ZM7.82463 20.0156C7.8216 19.9509 7.80102 19.8883 7.7651 19.8344C7.72918 19.7805 7.67927 19.7374 7.62073 19.7097C7.55863 19.6744 7.48693 19.6597 7.41595 19.6677C7.34496 19.6758 7.27835 19.7061 7.22568 19.7543C7.08281 19.8806 6.96407 20.0317 6.87523 20.2004C6.79876 20.3342 6.82425 20.4616 6.90709 20.5827C6.94974 20.6411 7.00914 20.6852 7.07742 20.7091C7.14569 20.733 7.21962 20.7356 7.2894 20.7165C7.46781 20.6783 7.82463 20.2195 7.82463 20.0156Z" fill="currentColor"/>
<path d="M15.8787 7.73704C15.7066 7.95368 15.7512 8.14483 15.9041 8.36148C16.6688 9.43832 17.2868 10.5853 17.65 11.8596C17.7074 12.0444 17.6819 12.1527 17.5162 12.2738C16.6242 12.9067 15.7427 13.5482 14.8719 14.1981C14.8171 14.2466 14.7496 14.2784 14.6773 14.2897C14.6051 14.301 14.531 14.2913 14.4641 14.2618C13.948 14.0707 13.4637 13.8094 12.9094 13.7393C12.2085 13.6501 11.6031 13.8668 11.0998 14.3446C11.0309 14.4179 10.9443 14.4722 10.8483 14.5024C10.7523 14.5325 10.6502 14.5374 10.5518 14.5167C10.1183 14.4697 9.70607 14.3044 9.36025 14.0388C8.56377 13.4271 7.74817 12.8473 6.93257 12.2674C6.76691 12.1527 6.75416 12.0444 6.79877 11.8724C7.11099 10.7637 7.62073 9.75691 8.25155 8.80751C8.96519 7.72429 9.78079 6.73665 10.8003 5.91468C11.0488 5.71078 11.3037 5.60246 11.6414 5.62158C12.1065 5.65344 12.578 5.63432 13.0496 5.62795C13.1915 5.62702 13.33 5.6717 13.4446 5.75539C13.908 6.10439 14.3408 6.49236 14.7381 6.91506C14.942 7.12534 15.0822 7.13808 15.3179 6.96604C15.4326 7.18268 15.6174 7.34835 15.7576 7.53951C15.8022 7.60322 15.8659 7.6542 15.8787 7.73704ZM12.2212 12.8281C12.2711 12.8302 12.3208 12.8215 12.3671 12.8028C12.4134 12.784 12.4551 12.7556 12.4895 12.7194C12.5239 12.6832 12.5502 12.64 12.5665 12.5928C12.5829 12.5457 12.589 12.4956 12.5844 12.4458C12.578 12.261 12.6545 12.191 12.8138 12.1272C13.4191 11.8979 13.6995 11.3053 13.4892 10.77C13.3554 10.4451 13.1005 10.2475 12.7947 10.1137C12.4888 9.97993 12.2276 9.90346 11.9536 9.77603C11.6796 9.64859 11.7306 9.47018 11.9217 9.33637C12.0082 9.27765 12.1104 9.24655 12.2148 9.24716C12.4697 9.24079 12.6864 9.34911 12.8966 9.48292C12.9338 9.5102 12.9761 9.52987 13.0209 9.54079C13.0657 9.55171 13.1122 9.55368 13.1578 9.54658C13.2034 9.53947 13.2471 9.52344 13.2865 9.49939C13.3259 9.47535 13.3601 9.44377 13.3873 9.40646C13.5083 9.24079 13.4765 9.03689 13.3044 8.89671C13.1642 8.78007 13.0015 8.69333 12.8265 8.64184C12.6545 8.59724 12.578 8.52714 12.5844 8.33599C12.5908 8.14483 12.4379 7.93456 12.234 7.93456C12.0301 7.93456 11.8708 8.08749 11.8771 8.32325C11.8835 8.559 11.807 8.59724 11.6414 8.6737C11.4652 8.75083 11.3159 8.87868 11.2127 9.04096C11.1094 9.20323 11.0568 9.39258 11.0615 9.58487C11.0615 10.0118 11.2973 10.2858 11.6732 10.4451L12.183 10.649C12.3486 10.7127 12.5334 10.7573 12.68 10.872C12.8265 10.9867 12.8903 11.2416 12.6736 11.4008C12.5814 11.4649 12.4734 11.5024 12.3614 11.5092C12.21 11.5201 12.0581 11.499 11.9154 11.4474C11.7727 11.3958 11.6424 11.3148 11.5331 11.2097C11.3483 11.0377 11.1571 11.0313 11.0106 11.1778C10.864 11.3244 10.864 11.541 11.0488 11.7258C11.2101 11.9051 11.4172 12.0373 11.6477 12.1081C11.8262 12.1591 11.8771 12.2419 11.8771 12.4203C11.8771 12.5988 12.0173 12.8218 12.2212 12.8281Z" fill="currentColor"/>
<path d="M1.85421 13.0958C2.13457 13.2041 2.24927 13.1722 2.42768 12.9301L3.74665 11.1141C3.83586 10.993 3.89957 10.9484 4.03976 11.0568L6.35274 12.7453C6.46743 12.8218 6.46743 12.8727 6.39097 12.9811C5.40546 14.3192 4.42419 15.6594 3.44717 17.0017C3.35797 17.1228 3.30062 17.1355 3.18593 17.0463C2.41706 16.4813 1.64606 15.9206 0.872947 15.3641C0.764625 15.2877 0.745509 15.2303 0.828343 15.122C0.994011 14.9181 1.12782 14.6887 1.29349 14.4848C1.45916 14.2809 1.50376 14.0643 1.33809 13.8413C1.4719 13.5609 1.68854 13.3443 1.85421 13.0958Z" fill="currentColor"/>
<path d="M6.72231 17.6453C7.4317 16.6767 8.13686 15.7061 8.83776 14.7333C8.91422 14.6314 8.9652 14.625 9.06078 14.7015C9.36662 14.95 9.68522 15.1666 10.1758 15.1475C9.93372 15.3705 9.74894 15.5298 9.57052 15.7018C9.19458 16.0587 9.06715 16.492 9.20733 16.9826C9.34751 17.4732 9.70433 17.7854 10.2205 17.8746C10.5964 17.9447 10.9277 17.83 11.2208 17.6007C11.6924 17.2311 12.1575 16.8679 12.6226 16.492C12.7373 16.4027 12.8202 16.3773 12.954 16.4728C14.1391 17.3522 15.337 18.2187 16.5286 19.0917C16.5358 19.1907 16.5232 19.2902 16.4915 19.3843C16.4598 19.4784 16.4095 19.5652 16.3438 19.6396C16.2419 19.7543 16.1017 19.8117 15.9934 19.9136L14.1583 18.5883C14.0053 18.48 13.846 18.4672 13.6931 18.5755C13.6351 18.6184 13.5918 18.6781 13.5689 18.7466C13.5461 18.815 13.545 18.8888 13.5657 18.9579C13.5912 19.0726 13.6804 19.1426 13.7696 19.2127L15.2861 20.3278C15.2478 20.7037 15.0567 20.9714 14.6935 21.1052L13.1706 20.0028C13.0687 19.9328 12.9603 19.8563 12.8265 19.8754C12.7541 19.8827 12.6857 19.9124 12.6309 19.9604C12.576 20.0083 12.5375 20.0722 12.5207 20.143C12.4979 20.2158 12.4999 20.2941 12.5264 20.3656C12.553 20.4371 12.6025 20.4978 12.6672 20.5381L13.8588 21.411L14.0308 21.5385C13.9671 21.9144 13.8205 22.2203 13.4064 22.3031L11.7688 21.1243C11.6095 21.0032 11.4438 20.9969 11.2909 21.1179C11.138 21.239 11.138 21.3792 11.1953 21.5321C11.2296 21.6009 11.2724 21.6652 11.3228 21.7232C11.0743 21.7615 10.915 21.7232 10.813 21.4301C10.6665 21.016 10.3097 20.8184 9.87 20.7866C9.76168 20.7738 9.71708 20.7483 9.67884 20.6337C9.51955 20.1621 9.18184 19.8945 8.67846 19.8563C8.58289 19.8499 8.52554 19.8308 8.50005 19.7161C8.46413 19.6055 8.41717 19.4987 8.35987 19.3975C8.35987 19.3529 8.37899 19.2956 8.29615 19.3211L8.27704 19.3019C8.29615 19.0216 8.105 18.8432 7.95207 18.6584C7.60799 18.2378 7.11736 18.0021 6.72231 17.6453Z" fill="#FEFEFE"/>
<path d="M23.3465 14.7588C23.3135 14.8263 23.2629 14.8836 23.1999 14.9245L20.9379 16.5748C20.8232 16.6576 20.7531 16.6576 20.6703 16.5366C19.8165 15.3599 18.9584 14.1854 18.0961 13.0129C18.0069 12.8919 18.0068 12.8218 18.1343 12.7262C18.9074 12.1697 19.672 11.6132 20.4282 11.0568C20.5428 10.9676 20.6066 10.9803 20.6958 11.095L23.2573 14.625L23.3465 14.7588Z" fill="currentColor"/>
<path d="M12.5844 14.4339C12.822 14.437 13.0572 14.4823 13.2789 14.5677C13.572 14.6824 13.8779 14.7779 14.1646 14.9118C14.5852 15.1093 14.9675 15.0711 15.3116 14.7588C15.4772 14.6123 15.5664 14.6378 15.6939 14.8162C16.4521 15.8867 17.2295 16.9444 18.0069 18.0021C18.1152 18.1487 18.147 18.2379 17.9623 18.3462C17.7775 18.4545 17.5608 18.7285 17.3569 18.7349C17.153 18.7412 16.9619 18.4991 16.7707 18.3589L13.4701 15.9567C12.9157 15.5553 12.6418 15.5617 12.1129 15.9759L10.813 16.9954C10.5136 17.2311 10.2141 17.2247 10.0102 16.9826C9.80628 16.7405 9.84451 16.4219 10.1312 16.167L11.6477 14.8162C11.9062 14.5839 12.2373 14.4488 12.5844 14.4339Z" fill="currentColor"/>
<path d="M12.234 4.91433C11.9791 4.91433 11.7242 4.90158 11.4693 4.91433C11.3228 4.9207 11.2463 4.86335 11.1635 4.74866C10.7493 4.14333 10.3288 3.55075 9.90823 2.95179C9.67884 2.62046 9.67884 2.28912 9.90185 2.02788C10.1249 1.76663 10.4307 1.7284 10.7939 1.89407C11.1571 2.05974 11.2336 1.98964 11.4311 1.773L11.5777 1.61371C11.9727 1.20591 12.5143 1.21865 12.903 1.63282C13.2917 2.04699 13.2917 2.03425 13.7759 1.84309C13.9136 1.7845 14.0666 1.77278 14.2116 1.80975C14.3565 1.84673 14.4853 1.93034 14.578 2.04771C14.6707 2.16507 14.7223 2.30967 14.7247 2.45923C14.7272 2.60879 14.6804 2.755 14.5915 2.87534C14.2921 3.32136 13.9798 3.76739 13.6676 4.20705C13.502 4.44281 13.3809 4.75503 13.1515 4.87609C12.9221 4.99716 12.6099 4.90795 12.3295 4.90795H12.234V4.91433Z" fill="currentColor"/>
<path d="M19.963 16.8297C19.9694 16.9061 19.9184 16.9189 19.8802 16.9444C19.5361 17.1992 19.1856 17.4477 18.8416 17.709C18.7524 17.7727 18.7141 17.7472 18.6568 17.6707C17.8327 16.5366 17.0086 15.4066 16.1845 14.2809C16.1272 14.2045 16.1272 14.1662 16.21 14.1089C16.5668 13.854 16.93 13.5928 17.2868 13.3251C17.4143 13.2296 17.4334 13.357 17.4716 13.408L19.2557 15.8548C19.466 16.1351 19.6699 16.4219 19.8738 16.7022L19.963 16.8297Z" fill="#FEFEFE"/>
<path d="M8.34712 14.1662L8.25155 14.3128C7.44232 15.4215 6.62672 16.5302 5.82387 17.6389C5.74741 17.7472 5.69643 17.7727 5.58174 17.6835C5.25678 17.435 4.92544 17.1929 4.58136 16.9507C4.49215 16.887 4.47941 16.8424 4.5495 16.7468L7.00903 13.3761C7.04727 13.3252 7.06638 13.2487 7.16833 13.3188L8.26429 14.1216L8.34712 14.1662Z" fill="#FEFEFE"/>
<path d="M6.7223 17.6453C7.11736 18.0021 7.60799 18.2378 7.95207 18.6584C8.105 18.8432 8.29615 19.0216 8.27704 19.3019C8.02216 19.0789 7.73543 18.9196 7.37861 18.9579C7.32323 18.9594 7.26908 18.9413 7.22568 18.9069L6.39097 18.2824C6.31451 18.2251 6.30176 18.1869 6.35911 18.1104C6.41646 18.0339 6.60124 17.7982 6.7223 17.6453Z" fill="currentColor"/>
<path d="M11.9982 22.1693C12.304 22.3987 12.6226 22.6217 12.9094 22.8702C13.0814 23.0167 13.075 23.278 12.9476 23.4628C12.886 23.5565 12.7951 23.6274 12.6891 23.6642C12.5831 23.7011 12.4679 23.7019 12.3614 23.6667C12.2437 23.6186 12.1357 23.5496 12.0428 23.4628C11.8962 23.3417 12.0555 23.2334 12.081 23.1251C12.1575 22.8001 12.0938 22.507 11.9408 22.2139L11.9982 22.1693Z" fill="currentColor"/>
<path d="M11.4056 22.8192C11.4056 23.0422 11.0169 23.5265 10.8003 23.5647C10.7296 23.5779 10.6565 23.5705 10.5899 23.5433C10.5233 23.5162 10.4658 23.4706 10.4243 23.4118C10.3772 23.3572 10.3477 23.2897 10.3398 23.218C10.3318 23.1463 10.3458 23.074 10.3797 23.0104C10.4761 22.8286 10.6058 22.6664 10.7621 22.5325C10.8175 22.4802 10.8883 22.447 10.9639 22.4378C11.0396 22.4287 11.1163 22.444 11.1826 22.4815C11.2459 22.5135 11.2998 22.5615 11.339 22.6207C11.3781 22.68 11.401 22.7484 11.4056 22.8192Z" fill="currentColor"/>
<path d="M9.0098 20.965C9.01617 21.1816 8.62112 21.6659 8.40447 21.7041C8.3338 21.7158 8.2613 21.7076 8.19496 21.6806C8.12862 21.6536 8.07103 21.6089 8.02854 21.5512C7.98243 21.496 7.9541 21.4281 7.94728 21.3564C7.94046 21.2848 7.95545 21.2127 7.9903 21.1498C8.0837 20.9731 8.20652 20.8137 8.3535 20.6783C8.40826 20.6254 8.47778 20.5904 8.55287 20.5778C8.62797 20.5653 8.70509 20.5759 8.77404 20.6082C8.92697 20.6783 8.99068 20.8057 9.0098 20.965Z" fill="currentColor"/>
<path d="M10.2077 21.8889C10.2141 22.0928 9.83177 22.5835 9.63424 22.6281C9.56034 22.6464 9.48265 22.6422 9.41114 22.6161C9.33962 22.59 9.27752 22.5431 9.23281 22.4815C9.18061 22.4256 9.14852 22.354 9.1416 22.2778C9.13467 22.2016 9.15332 22.1254 9.19458 22.061C9.29705 21.9016 9.4144 21.7522 9.54503 21.6149C9.60093 21.5572 9.67442 21.5196 9.75398 21.508C9.83355 21.4965 9.91469 21.5117 9.98469 21.5512C10.0484 21.5827 10.1027 21.6306 10.1419 21.6899C10.1811 21.7493 10.2038 21.8179 10.2077 21.8889Z" fill="currentColor"/>
<path d="M7.82463 20.0156C7.82463 20.2195 7.46781 20.6783 7.28939 20.7165C7.21962 20.7356 7.14569 20.733 7.07741 20.7091C7.00914 20.6852 6.94973 20.6411 6.90708 20.5827C6.82425 20.4616 6.79876 20.3342 6.87522 20.2004C6.96406 20.0317 7.08281 19.8806 7.22568 19.7543C7.27834 19.7061 7.34496 19.6758 7.41594 19.6678C7.48693 19.6597 7.55863 19.6744 7.62073 19.7097C7.67927 19.7374 7.72917 19.7805 7.76509 19.8344C7.80101 19.8883 7.8216 19.9509 7.82463 20.0156Z" fill="currentColor"/>
<path d="M13.4064 22.3031C13.8205 22.2203 13.9671 21.9144 14.0308 21.5385C14.1391 21.6149 14.2602 21.685 14.3558 21.7679C14.4494 21.8466 14.5107 21.957 14.528 22.078C14.5453 22.1991 14.5173 22.3222 14.4495 22.424C14.3817 22.5257 14.2787 22.5989 14.1603 22.6295C14.0419 22.6601 13.9164 22.646 13.8078 22.5898C13.6555 22.5233 13.5187 22.4256 13.4064 22.3031Z" fill="currentColor"/>
<path d="M15.9933 19.9136C16.1017 19.8117 16.2418 19.7543 16.3438 19.6397C16.4095 19.5652 16.4598 19.4784 16.4915 19.3843C16.5232 19.2902 16.5358 19.1907 16.5286 19.0917C16.6503 19.1472 16.7605 19.225 16.8535 19.3211C16.9531 19.4013 17.0184 19.5164 17.0361 19.6431C17.0539 19.7697 17.0228 19.8983 16.9491 20.0028C16.8711 20.1104 16.7542 20.1832 16.6233 20.2058C16.4924 20.2284 16.3578 20.199 16.2482 20.1239C16.159 20.0602 16.0507 20.0156 15.9933 19.9136Z" fill="currentColor"/>
<path d="M14.6935 21.1052C15.0567 20.9714 15.2478 20.7038 15.2861 20.3278C15.3963 20.3882 15.5009 20.4586 15.5983 20.5381C15.6912 20.6178 15.7519 20.7285 15.769 20.8497C15.7861 20.9709 15.7585 21.0941 15.6914 21.1964C15.6242 21.2987 15.5221 21.3731 15.4041 21.4055C15.2861 21.438 15.1603 21.4264 15.0503 21.3728C14.9143 21.309 14.7928 21.2179 14.6935 21.1052Z" fill="currentColor"/>
<path d="M8.29615 19.3211C8.37898 19.2956 8.35987 19.3529 8.35987 19.3975C8.35987 19.4421 8.30252 19.3593 8.29615 19.3211Z" fill="currentColor"/>
<path d="M11.3228 21.7233L11.3546 21.7424L11.3228 21.7551V21.7233Z" fill="#FEFEFE"/>
<path d="M12.2212 12.8281C12.0173 12.8218 11.8708 12.6689 11.8771 12.4203C11.8835 12.1718 11.8262 12.1591 11.6477 12.1081C11.4172 12.0373 11.2101 11.9051 11.0488 11.7258C10.864 11.541 10.8513 11.3371 11.0106 11.1778C11.1699 11.0185 11.3483 11.0377 11.5331 11.2097C11.6424 11.3148 11.7727 11.3958 11.9154 11.4474C12.0581 11.499 12.21 11.5201 12.3614 11.5092C12.4734 11.5024 12.5815 11.4649 12.6736 11.4009C12.8903 11.2416 12.8966 11.0377 12.68 10.872C12.4633 10.7063 12.3487 10.7127 12.183 10.649L11.6732 10.4451C11.2973 10.2858 11.0615 10.0118 11.0615 9.58487C11.0568 9.39259 11.1094 9.20324 11.2127 9.04096C11.3159 8.87868 11.4652 8.75083 11.6414 8.6737C11.807 8.59724 11.8835 8.5144 11.8771 8.32325C11.8708 8.13209 12.0301 7.92819 12.234 7.93456C12.4379 7.94094 12.5908 8.09386 12.5844 8.33599C12.578 8.57812 12.6545 8.59724 12.8265 8.64184C13.0015 8.69334 13.1642 8.78007 13.3044 8.89672C13.4765 9.0369 13.5083 9.2408 13.3873 9.40646C13.3601 9.44377 13.3259 9.47535 13.2865 9.4994C13.2471 9.52344 13.2034 9.53947 13.1578 9.54658C13.1122 9.55368 13.0657 9.55172 13.0209 9.54079C12.9761 9.52987 12.9338 9.5102 12.8966 9.48292C12.6864 9.34911 12.4697 9.2408 12.2148 9.24717C12.1104 9.24655 12.0082 9.27765 11.9217 9.33637C11.7306 9.47018 11.737 9.68682 11.9536 9.77603C12.1702 9.86524 12.5143 9.99904 12.7947 10.1137C13.075 10.2284 13.3554 10.4451 13.4892 10.77C13.6995 11.3053 13.4191 11.8979 12.8138 12.1272C12.6545 12.191 12.578 12.261 12.5844 12.4458C12.589 12.4956 12.5829 12.5457 12.5665 12.5929C12.5502 12.64 12.5239 12.6832 12.4895 12.7194C12.4551 12.7556 12.4134 12.784 12.3671 12.8028C12.3209 12.8215 12.2711 12.8302 12.2212 12.8281Z" fill="white"/>
</g>
<defs>
<clipPath id="clip0_4_114">
<rect width="24.4615" height="24" fill="white" transform="translate(0 0.5)"/>
</clipPath>
</defs>
</svg>
