<svg width="25" height="24" viewBox="0 0 25 24" fill="none" xmlns="http://www.w3.org/2000/svg">
<g clip-path="url(#clip0_303_2)">
<path d="M24.4615 14.9661C24.3214 15.2337 24.0983 15.4057 23.8626 15.5778C23.1235 16.1066 22.3971 16.6419 21.6643 17.1771C21.2119 17.5021 20.8678 17.4638 20.4982 17.0433C20.4282 16.9668 20.3899 16.9668 20.3071 17.0242L17.8221 18.8402C17.7392 18.8975 17.7265 18.9612 17.7392 19.0632C17.7624 19.2224 17.7529 19.3847 17.7113 19.5401C17.6698 19.6955 17.597 19.8408 17.4974 19.9672C17.3979 20.0936 17.2736 20.1984 17.1322 20.2752C16.9909 20.352 16.8353 20.3993 16.6751 20.414C16.5541 20.4268 16.4967 20.4459 16.4776 20.5861C16.4075 21.1532 16.0125 21.5355 15.4263 21.6247C15.2924 21.6438 15.2415 21.6756 15.216 21.8286C15.1013 22.4721 14.6043 22.8735 13.9544 22.8417C13.7823 22.8353 13.7377 22.8799 13.6867 23.0456C13.451 23.8548 12.5079 24.1607 11.8007 23.6637C11.6159 23.5362 11.5012 23.4916 11.2782 23.6382C10.692 24.0141 9.92097 23.7019 9.69159 23.0328C9.64698 22.9118 9.60238 22.8544 9.45583 22.8417C8.97157 22.8098 8.6466 22.5422 8.48731 22.0898C8.44908 21.9751 8.40447 21.9305 8.28341 21.9241C7.76091 21.8732 7.41046 21.5928 7.27028 21.0894C7.23205 20.9684 7.18108 20.9493 7.07913 20.9365C6.89193 20.917 6.71307 20.849 6.56015 20.7392C6.40724 20.6295 6.28556 20.4818 6.20709 20.3107C6.12863 20.1397 6.0961 19.9511 6.1127 19.7636C6.1293 19.5761 6.19446 19.3962 6.30176 19.2416L6.33362 19.2034C6.60761 18.8211 6.60761 18.8211 6.23167 18.5471C5.54988 18.0501 4.8681 17.5531 4.19268 17.0497C4.07799 16.9668 4.02701 16.9605 3.93143 17.0815C3.6447 17.4447 3.2369 17.4893 2.85459 17.2153L0.350452 15.393C0.184784 15.2783 0.114693 15.1126 0 14.9661V14.5328L0.669044 13.5898C0.911175 13.2584 0.949406 13.2457 1.33809 13.3413C1.50376 13.5643 1.46553 13.7745 1.29349 13.9848C1.12145 14.1951 0.994009 14.4181 0.828341 14.622C0.745507 14.7303 0.764623 14.7877 0.872944 14.8641C1.64181 15.4206 2.41281 15.9813 3.18593 16.5463C3.30062 16.6355 3.35797 16.6228 3.44717 16.5017C4.42419 15.1594 5.40546 13.8192 6.39097 12.4811C6.46743 12.3727 6.46743 12.3218 6.35274 12.2453L4.03975 10.5568C3.89957 10.4484 3.83586 10.493 3.74665 10.6141L2.42768 12.4301C2.24926 12.6722 2.13457 12.7041 1.85421 12.5958C1.66305 12.3345 1.65668 12.2389 1.84784 11.9841L3.2369 10.0725C3.54275 9.65833 3.95692 9.59461 4.37746 9.90046L6.1106 11.1557C6.2841 10.5592 6.51012 9.9792 6.78602 9.42257C7.69082 7.62571 8.86325 6.03912 10.4562 4.78387C10.5773 4.69466 10.5709 4.63731 10.4881 4.52899C10.0739 3.94278 9.65973 3.36294 9.26467 2.76399C9.13505 2.57702 9.0531 2.36119 9.02597 2.13531C8.99884 1.90942 9.02736 1.68033 9.10903 1.46799C9.1907 1.25564 9.32305 1.06649 9.49455 0.916999C9.66605 0.76751 9.87151 0.662221 10.093 0.610303C10.3414 0.54731 10.6027 0.558385 10.8449 0.642162C10.9532 0.680394 11.0106 0.661276 11.0934 0.584814C11.7943 -0.0714865 12.6672 -0.0651123 13.3745 0.591188C13.4006 0.623494 13.4367 0.646088 13.4772 0.655335C13.5176 0.664582 13.56 0.659943 13.5975 0.642162C14.2347 0.463751 14.8273 0.661279 15.1841 1.16465C15.5409 1.66803 15.5282 2.29247 15.165 2.82134C14.8018 3.3502 14.3813 3.95552 13.9735 4.51625C13.8843 4.64368 13.8906 4.70103 14.0181 4.79661C14.4705 5.12157 14.8655 5.51663 15.2542 5.91168C15.4199 6.0901 15.4581 6.26213 15.3179 6.46603C15.1777 6.66993 14.942 6.62533 14.7381 6.41506C14.3408 5.99236 13.908 5.60439 13.4446 5.25538C13.33 5.17169 13.1915 5.12702 13.0496 5.12794C12.578 5.13432 12.1065 5.15343 11.6414 5.12157C11.3037 5.10246 11.0488 5.21078 10.8003 5.41468C9.78079 6.23665 8.96519 7.22428 8.25155 8.3075C7.62073 9.2569 7.11099 10.2637 6.79877 11.3724C6.75416 11.5444 6.76691 11.6527 6.93258 11.7674C7.74817 12.3473 8.56377 12.9271 9.36025 13.5388C9.70607 13.8044 10.1183 13.9697 10.5518 14.0167C10.6502 14.0374 10.7523 14.0325 10.8483 14.0024C10.9443 13.9722 11.0309 13.9179 11.0998 13.8446C11.6031 13.3668 12.2085 13.1501 12.9094 13.2393C13.4637 13.3094 13.948 13.5706 14.4641 13.7618C14.531 13.7913 14.6051 13.801 14.6773 13.7897C14.7496 13.7784 14.8171 13.7466 14.8719 13.6981C15.747 13.0482 16.6284 12.4067 17.5162 11.7738C17.6819 11.6527 17.7074 11.5444 17.65 11.3596C17.2868 10.0852 16.6688 8.93831 15.9041 7.86147C15.7512 7.64483 15.7066 7.45367 15.8787 7.23703C16.21 7.12871 16.2928 7.15419 16.4967 7.4473C17.2677 8.54326 17.9049 9.70931 18.2872 11.0028C18.3382 11.1621 18.3828 11.1366 18.4911 11.0601C19.0136 10.6715 19.5425 10.2891 20.0713 9.90683C20.6002 9.52452 20.9124 9.65196 21.2246 10.0789L24.2768 14.2652C24.3468 14.3608 24.3978 14.4755 24.4615 14.5838V14.9661ZM8.29615 18.8211C8.30252 18.8593 8.31527 18.8911 8.35987 18.8975C8.41717 18.9987 8.46413 19.1055 8.50005 19.2161C8.52554 19.3308 8.58288 19.3499 8.67846 19.3563C9.18184 19.3945 9.51955 19.6621 9.67884 20.1337C9.71707 20.2483 9.76168 20.2738 9.87 20.2866C10.3097 20.3184 10.6665 20.516 10.813 20.9301C10.915 21.2232 11.0743 21.2615 11.3228 21.2232V21.2551L11.3546 21.2424L11.3228 21.2232C11.2724 21.1652 11.2296 21.1009 11.1953 21.0321C11.138 20.8792 11.1571 20.7262 11.2909 20.6179C11.4247 20.5096 11.6095 20.5032 11.7688 20.6243L13.4064 21.8031C13.5187 21.9256 13.6555 22.0233 13.8078 22.0898C13.9164 22.1459 14.0419 22.1601 14.1603 22.1295C14.2787 22.0989 14.3817 22.0257 14.4495 21.924C14.5173 21.8222 14.5453 21.699 14.528 21.578C14.5107 21.457 14.4494 21.3465 14.3558 21.2678C14.2602 21.185 14.1391 21.1149 14.0308 21.0385L13.8588 20.911L12.6672 20.0381C12.6025 19.9978 12.5529 19.9371 12.5264 19.8656C12.4999 19.7941 12.4979 19.7158 12.5207 19.643C12.5375 19.5722 12.576 19.5083 12.6309 19.4604C12.6857 19.4124 12.7541 19.3827 12.8265 19.3754C12.9603 19.3563 13.0687 19.4328 13.1706 19.5028L14.6935 20.6052C14.7928 20.7179 14.9143 20.809 15.0503 20.8728C15.1603 20.9263 15.2861 20.938 15.4041 20.9055C15.5221 20.873 15.6242 20.7987 15.6914 20.6964C15.7585 20.5941 15.7861 20.4709 15.769 20.3497C15.7519 20.2285 15.6912 20.1177 15.5983 20.0381C15.5009 19.9586 15.3963 19.8882 15.2861 19.8278L13.7696 18.7127C13.6804 18.6426 13.5912 18.5726 13.5657 18.4579C13.545 18.3888 13.5461 18.315 13.5689 18.2466C13.5917 18.1781 13.6351 18.1184 13.6931 18.0755C13.846 17.9672 14.0053 17.98 14.1583 18.0883L15.9933 19.4136C16.0507 19.5156 16.159 19.5602 16.2482 19.6239C16.3578 19.699 16.4924 19.7284 16.6233 19.7058C16.7542 19.6832 16.8711 19.6104 16.9491 19.5028C17.0228 19.3983 17.0539 19.2697 17.0361 19.1431C17.0184 19.0164 16.9531 18.9013 16.8535 18.8211C16.7605 18.725 16.6503 18.6472 16.5286 18.5917C15.337 17.7187 14.1391 16.8522 12.954 15.9728C12.8202 15.8773 12.7373 15.9027 12.6226 15.992C12.1575 16.3679 11.6923 16.7311 11.2208 17.1007C10.9277 17.33 10.5964 17.4447 10.2204 17.3746C9.70433 17.2854 9.35388 16.986 9.20733 16.4826C9.06077 15.9792 9.19458 15.5587 9.57052 15.2018C9.74893 15.0298 9.93372 14.8705 10.1758 14.6475C9.68521 14.6666 9.36662 14.45 9.06077 14.2015C8.9652 14.125 8.91422 14.1314 8.83776 14.2333C8.13685 15.2061 7.4317 16.1767 6.7223 17.1453C6.60124 17.2982 6.48655 17.4575 6.35911 17.6104C6.23167 17.7633 6.31451 17.7251 6.39097 17.7824L7.22568 18.4069C7.26908 18.4413 7.32322 18.4594 7.3786 18.4579C7.73543 18.4196 8.02216 18.5789 8.27703 18.8019L8.29615 18.8211ZM23.3465 14.2588L23.2573 14.125L20.6958 10.595C20.6066 10.4803 20.5428 10.4676 20.4282 10.5568C19.672 11.1175 18.9074 11.674 18.1343 12.2262C18.0069 12.3218 18.0069 12.3919 18.0961 12.5129C18.9584 13.6853 19.8165 14.8599 20.6703 16.0366C20.7531 16.1576 20.8232 16.1576 20.9379 16.0748L23.1999 14.4245C23.2629 14.3836 23.3135 14.3263 23.3465 14.2588ZM12.5844 13.9338C12.2373 13.9488 11.9062 14.0839 11.6477 14.3162L10.1312 15.667C9.84451 15.9219 9.79991 16.2405 10.0102 16.4826C10.2204 16.7247 10.5136 16.7311 10.813 16.4953L12.1129 15.4758C12.6418 15.0617 12.9157 15.0553 13.4701 15.4567L16.7707 17.8589C16.9619 17.9991 17.1658 18.2412 17.3569 18.2348C17.5481 18.2285 17.752 17.9736 17.9622 17.8462C18.1725 17.7187 18.1152 17.6486 18.0069 17.5021C17.2295 16.4444 16.4521 15.3866 15.6939 14.3162C15.5664 14.1377 15.4772 14.1123 15.3116 14.2588C14.9675 14.571 14.5852 14.6093 14.1646 14.4117C13.8779 14.2779 13.572 14.1823 13.2789 14.0677C13.0572 13.9823 12.822 13.937 12.5844 13.9338ZM12.234 4.4143H12.3295C12.6099 4.4143 12.9349 4.49713 13.1515 4.38244C13.3681 4.26775 13.502 3.94915 13.6676 3.7134C13.9798 3.27374 14.2921 2.82771 14.5915 2.38168C14.6804 2.26134 14.7272 2.11513 14.7247 1.96557C14.7223 1.81601 14.6707 1.67141 14.578 1.55405C14.4853 1.43668 14.3565 1.35307 14.2116 1.3161C14.0666 1.27912 13.9136 1.29084 13.7759 1.34944C13.2917 1.54059 13.2726 1.54059 12.903 1.13917C12.5334 0.737739 11.9727 0.712253 11.5777 1.12005L11.4311 1.27935C11.2336 1.49599 11.0615 1.52785 10.7939 1.40041C10.5263 1.27297 10.1249 1.27935 9.90186 1.53422C9.67884 1.7891 9.67884 2.1268 9.90823 2.45814C10.3288 3.05709 10.7493 3.64968 11.1635 4.255C11.2463 4.3697 11.3228 4.42704 11.4693 4.42067C11.7242 4.40155 11.9791 4.4143 12.234 4.4143ZM19.963 16.3297L19.8738 16.2022C19.6699 15.9219 19.466 15.6351 19.2557 15.3548L17.4716 12.908C17.4334 12.857 17.4143 12.7296 17.2868 12.8251C16.93 13.0928 16.5668 13.354 16.21 13.6089C16.1272 13.6662 16.1272 13.7045 16.1845 13.7809C17.0128 14.9109 17.8369 16.0408 18.6568 17.1707C18.7141 17.2472 18.7524 17.2727 18.8416 17.209C19.1856 16.9477 19.5361 16.6992 19.8802 16.4444C19.9184 16.4189 19.9694 16.4061 19.963 16.3297ZM8.34713 13.6662L8.26429 13.6216L7.16833 12.8188C7.06638 12.7487 7.04727 12.8251 7.00904 12.8761L4.5495 16.2468C4.47941 16.3424 4.49215 16.387 4.58136 16.4507C4.92544 16.6929 5.25678 16.935 5.58174 17.1835C5.69644 17.2727 5.74741 17.2472 5.82387 17.1389C6.62672 16.0302 7.44232 14.9215 8.25155 13.8128L8.34713 13.6662ZM11.9982 21.6693L11.9408 21.7139C12.0938 22.007 12.1575 22.3001 12.081 22.625C12.0555 22.7334 11.8962 22.8417 12.0428 22.9628C12.1357 23.0495 12.2437 23.1186 12.3614 23.1667C12.4679 23.2019 12.5831 23.2011 12.6891 23.1642C12.7951 23.1273 12.886 23.0565 12.9476 22.9628C13.075 22.778 13.0814 22.5167 12.9094 22.3702C12.6226 22.1217 12.304 21.8987 11.9982 21.6693ZM11.4056 22.3192C11.401 22.2484 11.3781 22.18 11.339 22.1207C11.2998 22.0615 11.2459 22.0135 11.1826 21.9815C11.1163 21.9439 11.0396 21.9286 10.9639 21.9378C10.8883 21.947 10.8175 21.9802 10.7621 22.0325C10.6058 22.1664 10.4761 22.3285 10.3797 22.5104C10.3458 22.5739 10.3318 22.6463 10.3398 22.718C10.3477 22.7896 10.3772 22.8572 10.4243 22.9118C10.4658 22.9706 10.5233 23.0162 10.5899 23.0433C10.6565 23.0704 10.7296 23.0779 10.8003 23.0647C11.0169 23.0265 11.4056 22.5422 11.4056 22.3192ZM9.0098 20.465C8.99068 20.3057 8.92696 20.1783 8.77404 20.1082C8.70509 20.0759 8.62797 20.0653 8.55287 20.0778C8.47778 20.0903 8.40825 20.1254 8.3535 20.1783C8.20652 20.3137 8.0837 20.4731 7.9903 20.6498C7.95545 20.7127 7.94045 20.7848 7.94728 20.8564C7.9541 20.928 7.98242 20.9959 8.02853 21.0512C8.07102 21.1089 8.12862 21.1536 8.19496 21.1806C8.2613 21.2076 8.3338 21.2157 8.40447 21.2041C8.62111 21.1659 9.01617 20.6816 9.0098 20.465ZM10.2077 21.3889C10.2038 21.3179 10.1811 21.2492 10.1419 21.1899C10.1027 21.1306 10.0484 21.0827 9.98469 21.0512C9.91469 21.0117 9.83355 20.9965 9.75398 21.008C9.67442 21.0195 9.60093 21.0571 9.54503 21.1149C9.4144 21.2522 9.29706 21.4015 9.19458 21.5609C9.15332 21.6253 9.13467 21.7016 9.1416 21.7778C9.14852 21.8539 9.18061 21.9256 9.23281 21.9815C9.27753 22.0431 9.33962 22.09 9.41114 22.1161C9.48266 22.1422 9.56034 22.1464 9.63424 22.128C9.83177 22.0834 10.2141 21.5928 10.2077 21.3889ZM7.82463 19.5156C7.8216 19.4509 7.80102 19.3883 7.7651 19.3344C7.72918 19.2805 7.67927 19.2374 7.62073 19.2097C7.55863 19.1744 7.48693 19.1597 7.41595 19.1677C7.34496 19.1758 7.27835 19.2061 7.22568 19.2543C7.08281 19.3806 6.96407 19.5317 6.87523 19.7004C6.79876 19.8342 6.82425 19.9616 6.90709 20.0827C6.94974 20.1411 7.00914 20.1852 7.07742 20.2091C7.14569 20.233 7.21962 20.2356 7.2894 20.2165C7.46781 20.1783 7.82463 19.7195 7.82463 19.5156Z" fill="#28c76f"/>
<path d="M15.8787 7.23707C15.7066 7.45371 15.7512 7.64486 15.9041 7.86151C16.6688 8.93835 17.2868 10.0853 17.65 11.3597C17.7074 11.5444 17.6819 11.6528 17.5162 11.7738C16.6242 12.4068 15.7427 13.0482 14.8719 13.6981C14.8172 13.7466 14.7496 13.7784 14.6773 13.7897C14.6051 13.801 14.5311 13.7914 14.4641 13.7618C13.948 13.5707 13.4637 13.3094 12.9094 13.2394C12.2085 13.1501 11.6031 13.3668 11.0998 13.8447C11.0309 13.918 10.9443 13.9723 10.8483 14.0024C10.7523 14.0325 10.6502 14.0375 10.5518 14.0167C10.1183 13.9697 9.70608 13.8044 9.36026 13.5388C8.56377 12.9271 7.74818 12.3473 6.93258 11.7675C6.76691 11.6528 6.75417 11.5444 6.79877 11.3724C7.11099 10.2637 7.62074 9.25694 8.25155 8.30754C8.9652 7.22432 9.7808 6.23668 10.8003 5.41471C11.0488 5.21081 11.3037 5.10249 11.6414 5.12161C12.1065 5.15347 12.578 5.13435 13.0496 5.12798C13.1915 5.12705 13.33 5.17173 13.4446 5.25542C13.908 5.60442 14.3408 5.99239 14.7381 6.41509C14.942 6.62537 15.0822 6.63811 15.3179 6.46607C15.4326 6.68271 15.6174 6.84838 15.7576 7.03954C15.8022 7.10325 15.8659 7.15423 15.8787 7.23707ZM12.2212 12.3282C12.2711 12.3302 12.3209 12.3215 12.3671 12.3028C12.4134 12.284 12.4551 12.2556 12.4895 12.2194C12.5239 12.1832 12.5502 12.1401 12.5665 12.0929C12.5829 12.0457 12.589 11.9956 12.5844 11.9459C12.578 11.7611 12.6545 11.691 12.8138 11.6273C13.4191 11.3979 13.6995 10.8053 13.4892 10.2701C13.3554 9.9451 13.1005 9.74757 12.7947 9.61377C12.4888 9.47996 12.2276 9.40349 11.9536 9.27606C11.6796 9.14862 11.7306 8.97021 11.9217 8.8364C12.0082 8.77768 12.1104 8.74658 12.2148 8.74719C12.4697 8.74082 12.6864 8.84914 12.8966 8.98295C12.9338 9.01023 12.9761 9.0299 13.0209 9.04082C13.0657 9.05174 13.1122 9.05371 13.1578 9.04661C13.2034 9.0395 13.2471 9.02347 13.2865 8.99942C13.3259 8.97538 13.3601 8.9438 13.3873 8.90649C13.5083 8.74082 13.4765 8.53692 13.3044 8.39674C13.1642 8.2801 13.0015 8.19336 12.8265 8.14187C12.6545 8.09727 12.578 8.02717 12.5844 7.83602C12.5908 7.64486 12.4379 7.43459 12.234 7.43459C12.0301 7.43459 11.8708 7.58752 11.8771 7.82328C11.8835 8.05904 11.807 8.09727 11.6414 8.17373C11.4652 8.25086 11.3159 8.37871 11.2127 8.54099C11.1094 8.70326 11.0568 8.89261 11.0615 9.0849C11.0615 9.51182 11.2973 9.78581 11.6732 9.9451L12.183 10.149C12.3487 10.2127 12.5334 10.2573 12.68 10.372C12.8265 10.4867 12.8903 10.7416 12.6736 10.9009C12.5815 10.9649 12.4734 11.0024 12.3614 11.0092C12.2101 11.0201 12.0581 10.999 11.9154 10.9475C11.7727 10.8959 11.6425 10.8149 11.5331 10.7097C11.3483 10.5377 11.1571 10.5313 11.0106 10.6779C10.864 10.8244 10.864 11.0411 11.0488 11.2258C11.2101 11.4052 11.4172 11.5373 11.6478 11.6082C11.8262 11.6591 11.8771 11.742 11.8771 11.9204C11.8771 12.0988 12.0173 12.3218 12.2212 12.3282Z" fill="#28c76f"/>
<path d="M1.85421 12.5958C2.13457 12.7041 2.24927 12.6723 2.42768 12.4301L3.74665 10.6141C3.83586 10.4931 3.89957 10.4485 4.03976 10.5568L6.35274 12.2453C6.46743 12.3218 6.46743 12.3728 6.39097 12.4811C5.40546 13.8192 4.42419 15.1594 3.44717 16.5017C3.35797 16.6228 3.30062 16.6355 3.18593 16.5463C2.41706 15.9814 1.64606 15.4206 0.872947 14.8642C0.764625 14.7877 0.745509 14.7304 0.828343 14.622C0.994011 14.4181 1.12782 14.1887 1.29349 13.9849C1.45916 13.781 1.50376 13.5643 1.33809 13.3413C1.4719 13.0609 1.68854 12.8443 1.85421 12.5958Z" fill="#28c76f"/>
<path d="M23.3465 14.2588C23.3135 14.3263 23.2629 14.3836 23.1999 14.4245L20.9379 16.0748C20.8232 16.1576 20.7531 16.1576 20.6703 16.0366C19.8165 14.8599 18.9584 13.6854 18.0961 12.5129C18.0069 12.3919 18.0068 12.3218 18.1343 12.2262C18.9074 11.6697 19.672 11.1132 20.4282 10.5568C20.5428 10.4676 20.6066 10.4803 20.6958 10.595L23.2573 14.125L23.3465 14.2588Z" fill="#28c76f"/>
<path d="M12.5844 13.9338C12.822 13.937 13.0572 13.9823 13.2789 14.0676C13.572 14.1823 13.8779 14.2779 14.1646 14.4117C14.5852 14.6093 14.9675 14.571 15.3116 14.2588C15.4772 14.1123 15.5664 14.1377 15.6939 14.3161C16.4521 15.3866 17.2295 16.4443 18.0068 17.5021C18.1152 17.6486 18.147 17.7378 17.9622 17.8462C17.7775 17.9545 17.5608 18.2285 17.3569 18.2348C17.153 18.2412 16.9619 17.9991 16.7707 17.8589L13.4701 15.4567C12.9157 15.0553 12.6417 15.0617 12.1129 15.4758L10.813 16.4953C10.5136 16.7311 10.2141 16.7247 10.0102 16.4826C9.80627 16.2404 9.8445 15.9219 10.1312 15.667L11.6477 14.3161C11.9062 14.0839 12.2373 13.9487 12.5844 13.9338Z" fill="#28c76f"/>
<path d="M12.234 4.4143C11.9791 4.4143 11.7242 4.40155 11.4693 4.4143C11.3228 4.42067 11.2463 4.36332 11.1635 4.24863C10.7493 3.6433 10.3288 3.05072 9.90823 2.45176C9.67884 2.12043 9.67884 1.78909 9.90185 1.52785C10.1249 1.2666 10.4307 1.22837 10.7939 1.39404C11.1571 1.55971 11.2336 1.48961 11.4311 1.27297L11.5777 1.11368C11.9727 0.705877 12.5143 0.718623 12.903 1.13279C13.2917 1.54696 13.2917 1.53422 13.7759 1.34306C13.9136 1.28447 14.0666 1.27275 14.2116 1.30972C14.3565 1.3467 14.4853 1.43031 14.578 1.54768C14.6707 1.66504 14.7223 1.80964 14.7247 1.9592C14.7272 2.10876 14.6804 2.25497 14.5915 2.3753C14.2921 2.82133 13.9798 3.26736 13.6676 3.70702C13.502 3.94278 13.3809 4.255 13.1515 4.37606C12.9221 4.49713 12.6099 4.40792 12.3295 4.40792H12.234V4.4143Z" fill="#28c76f"/>
<path d="M6.7223 17.1453C7.11736 17.5021 7.60799 17.7378 7.95207 18.1584C8.105 18.3432 8.29615 18.5216 8.27704 18.8019C8.02216 18.5789 7.73543 18.4196 7.37861 18.4579C7.32323 18.4594 7.26908 18.4413 7.22568 18.4069L6.39097 17.7824C6.31451 17.7251 6.30176 17.6869 6.35911 17.6104C6.41646 17.5339 6.60124 17.2982 6.7223 17.1453Z" fill="#28c76f"/>
<path d="M11.9982 21.6693C12.3041 21.8987 12.6226 22.1217 12.9094 22.3702C13.0814 22.5168 13.075 22.778 12.9476 22.9628C12.886 23.0566 12.7951 23.1274 12.6891 23.1643C12.5831 23.2011 12.4679 23.202 12.3614 23.1667C12.2437 23.1187 12.1357 23.0496 12.0428 22.9628C11.8963 22.8417 12.0556 22.7334 12.081 22.6251C12.1575 22.3001 12.0938 22.007 11.9409 21.7139L11.9982 21.6693Z" fill="#28c76f"/>
<path d="M11.4056 22.3192C11.4056 22.5422 11.0169 23.0265 10.8003 23.0647C10.7296 23.0779 10.6565 23.0705 10.5899 23.0433C10.5233 23.0162 10.4658 22.9706 10.4243 22.9118C10.3772 22.8572 10.3477 22.7897 10.3398 22.718C10.3318 22.6463 10.3458 22.574 10.3797 22.5104C10.4761 22.3286 10.6058 22.1664 10.7621 22.0325C10.8175 21.9802 10.8883 21.947 10.9639 21.9378C11.0396 21.9287 11.1163 21.944 11.1826 21.9815C11.2459 22.0135 11.2998 22.0615 11.339 22.1207C11.3781 22.18 11.401 22.2484 11.4056 22.3192Z" fill="#28c76f"/>
<path d="M9.00979 20.465C9.01616 20.6817 8.62111 21.1659 8.40447 21.2042C8.3338 21.2158 8.26129 21.2076 8.19495 21.1807C8.12861 21.1537 8.07102 21.1089 8.02853 21.0512C7.98242 20.996 7.95409 20.9281 7.94727 20.8564C7.94045 20.7848 7.95545 20.7128 7.9903 20.6498C8.08369 20.4731 8.20652 20.3137 8.35349 20.1783C8.40825 20.1254 8.47777 20.0904 8.55287 20.0779C8.62796 20.0654 8.70508 20.0759 8.77403 20.1082C8.92696 20.1783 8.99068 20.3057 9.00979 20.465Z" fill="#28c76f"/>
<path d="M10.2077 21.3889C10.2141 21.5928 9.83177 22.0835 9.63424 22.1281C9.56034 22.1464 9.48265 22.1422 9.41114 22.1161C9.33962 22.09 9.27752 22.0431 9.23281 21.9815C9.18061 21.9256 9.14852 21.854 9.1416 21.7778C9.13467 21.7016 9.15332 21.6254 9.19458 21.561C9.29705 21.4016 9.4144 21.2522 9.54503 21.1149C9.60093 21.0572 9.67442 21.0196 9.75398 21.008C9.83355 20.9965 9.91469 21.0117 9.98469 21.0512C10.0484 21.0827 10.1027 21.1306 10.1419 21.1899C10.1811 21.2493 10.2038 21.3179 10.2077 21.3889Z" fill="#28c76f"/>
<path d="M7.82463 19.5156C7.82463 19.7195 7.46781 20.1783 7.28939 20.2165C7.21962 20.2356 7.14569 20.233 7.07741 20.2091C7.00914 20.1852 6.94973 20.1411 6.90708 20.0827C6.82425 19.9617 6.79876 19.8342 6.87522 19.7004C6.96406 19.5317 7.08281 19.3806 7.22568 19.2544C7.27834 19.2061 7.34496 19.1758 7.41594 19.1678C7.48693 19.1598 7.55863 19.1745 7.62073 19.2098C7.67927 19.2375 7.72917 19.2805 7.76509 19.3344C7.80101 19.3883 7.8216 19.4509 7.82463 19.5156Z" fill="#28c76f"/>
<path d="M13.4064 21.8031C13.8205 21.7202 13.9671 21.4144 14.0308 21.0385C14.1391 21.1149 14.2602 21.185 14.3558 21.2678C14.4494 21.3465 14.5107 21.4569 14.528 21.578C14.5453 21.699 14.5173 21.8222 14.4495 21.924C14.3817 22.0257 14.2787 22.0989 14.1603 22.1295C14.0419 22.1601 13.9164 22.1459 13.8078 22.0898C13.6555 22.0233 13.5187 21.9256 13.4064 21.8031Z" fill="#28c76f"/>
<path d="M15.9933 19.4136C16.1017 19.3117 16.2418 19.2543 16.3438 19.1397C16.4095 19.0652 16.4598 18.9784 16.4915 18.8843C16.5232 18.7902 16.5358 18.6907 16.5286 18.5917C16.6503 18.6472 16.7605 18.725 16.8535 18.8211C16.9531 18.9013 17.0184 19.0164 17.0361 19.1431C17.0539 19.2697 17.0228 19.3983 16.9491 19.5028C16.8711 19.6104 16.7542 19.6832 16.6233 19.7058C16.4924 19.7284 16.3578 19.699 16.2482 19.6239C16.159 19.5602 16.0507 19.5156 15.9933 19.4136Z" fill="#28c76f"/>
<path d="M14.6935 20.6052C15.0567 20.4714 15.2478 20.2038 15.2861 19.8278C15.3964 19.8882 15.5009 19.9586 15.5983 20.0381C15.6912 20.1178 15.7519 20.2285 15.769 20.3497C15.7861 20.4709 15.7585 20.5941 15.6914 20.6964C15.6242 20.7987 15.5221 20.8731 15.4041 20.9055C15.2861 20.938 15.1604 20.9264 15.0503 20.8728C14.9143 20.809 14.7928 20.7179 14.6935 20.6052Z" fill="#28c76f"/>
<path d="M8.29616 18.821C8.37899 18.7956 8.35988 18.8529 8.35988 18.8975C8.35988 18.9421 8.30253 18.8593 8.29616 18.821Z" fill="#28c76f"/>
<path d="M11.3228 21.2233L11.3546 21.2424L11.3228 21.2551V21.2233Z" fill="#FEFEFE"/>
</g>
<defs>
<clipPath id="clip0_303_2">
<rect width="24.4615" height="24" fill="white"/>
</clipPath>
</defs>
</svg>
