<svg width="64" height="64" viewBox="0 0 64 64" fill="none" xmlns="http://www.w3.org/2000/svg">
<path d="M6.16486 21.3977C5.5619 19.5971 6.66462 17.6174 8.62784 16.9761L47.7299 4.2016C49.6931 3.56022 51.7734 4.49998 52.3764 6.30062L57.8351 22.6023C58.4381 24.4029 57.3354 26.3826 55.3722 27.0239L16.2701 39.7984C14.3069 40.4398 12.2266 39.5 11.6236 37.6994L6.16486 21.3977Z" fill="url(#paint0_linear_328_662)"/>
<path fill-rule="evenodd" clip-rule="evenodd" d="M14.6237 20.4294C15.1437 21.953 14.2908 23.5966 12.7189 24.1005C12.2469 24.2518 11.8804 24.7276 12.0365 25.1851L14.0143 30.9807C14.1704 31.4382 14.7573 31.6083 15.2293 31.457C16.8012 30.953 18.497 31.7796 19.0169 33.3032C19.173 33.7607 19.6638 34.1159 20.1358 33.9646L48.8849 24.7482C49.3569 24.5969 49.5324 24.0281 49.3763 23.5706C48.8563 22.047 49.7092 20.4034 51.2811 19.8995C51.7531 19.7482 52.1196 19.2724 51.9635 18.8149L49.9857 13.0193C49.8296 12.5618 49.2427 12.3917 48.7707 12.543C47.1988 13.047 45.503 12.2204 44.9831 10.6968C44.827 10.2393 44.3362 9.88407 43.8642 10.0354L15.1151 19.2518C14.6431 19.4031 14.4676 19.972 14.6237 20.4294ZM44.0124 20.1894C45.0603 19.8534 45.6288 18.7577 45.2822 17.742C44.9356 16.7263 43.8051 16.1752 42.7572 16.5112C41.7092 16.8471 41.1407 17.9428 41.4873 18.9586C41.8339 19.9743 42.9644 20.5253 44.0124 20.1894ZM22.5127 25.0414C22.8593 26.0572 22.2908 27.1529 21.2428 27.4888C20.1949 27.8248 19.0644 27.2737 18.7178 26.258C18.3712 25.2423 18.9397 24.1466 19.9876 23.8106C21.0356 23.4747 22.1661 24.0257 22.5127 25.0414ZM33.2552 25.6782C35.3511 25.0063 36.4881 22.8148 35.7949 20.7834C35.1017 18.752 32.8407 17.6499 30.7448 18.3218C28.6489 18.9937 27.5119 21.1852 28.2051 23.2166C28.8983 25.248 31.1593 26.3501 33.2552 25.6782Z" fill="url(#paint1_linear_328_662)"/>
<path d="M4 28C4 24.6863 6.68629 22 10 22H52C55.3137 22 58 24.6863 58 28V54C58 57.3137 55.3137 60 52 60H10C6.68629 60 4 57.3137 4 54V28Z" fill="url(#paint2_linear_328_662)"/>
<path d="M40 40C40 36.134 43.134 33 47 33H58C59.1046 33 60 33.8954 60 35V45C60 46.1046 59.1046 47 58 47H47C43.134 47 40 43.866 40 40Z" fill="url(#paint3_linear_328_662)"/>
<path d="M47 43C48.6569 43 50 41.6569 50 40C50 38.3431 48.6569 37 47 37C45.3431 37 44 38.3431 44 40C44 41.6569 45.3431 43 47 43Z" fill="url(#paint4_linear_328_662)"/>
<defs>
<linearGradient id="paint0_linear_328_662" x1="55.6516" y1="16.0816" x2="22.3402" y2="-6.89566" gradientUnits="userSpaceOnUse">
<stop offset="0.423361" stop-color="#089953"/>
<stop offset="1" stop-color="#16D96F"/>
</linearGradient>
<linearGradient id="paint1_linear_328_662" x1="12" y1="10" x2="33.1765" y2="45.2941" gradientUnits="userSpaceOnUse">
<stop stop-color="white"/>
<stop offset="0.705" stop-color="#EAEFEF"/>
</linearGradient>
<linearGradient id="paint2_linear_328_662" x1="58" y1="60" x2="22.2312" y2="9.17064" gradientUnits="userSpaceOnUse">
<stop offset="0.266972" stop-color="#2E2E41"/>
<stop offset="1" stop-color="#566C80"/>
</linearGradient>
<linearGradient id="paint3_linear_328_662" x1="58.6957" y1="47" x2="58.6957" y2="33" gradientUnits="userSpaceOnUse">
<stop offset="0.340681" stop-color="#2E2E41"/>
<stop offset="1" stop-color="#566C80"/>
</linearGradient>
<linearGradient id="paint4_linear_328_662" x1="47" y1="43" x2="47" y2="37" gradientUnits="userSpaceOnUse">
<stop stop-color="#71706E"/>
<stop offset="1" stop-color="#B9AA99"/>
</linearGradient>
</defs>
</svg>
